<svg preserveAspectRatio="none" overflow="visible" style="display: block;" width="255" height="142" viewBox="0 0 255 142" fill="none" xmlns="http://www.w3.org/2000/svg">
<g id="About Doodle Note">
<path id="Vector 31" d="M172.98 28.5866C172.98 28.7544 173.046 28.9152 173.165 29.0338C173.284 29.1524 173.445 29.2191 173.612 29.2191C173.78 29.2191 173.941 29.1524 174.059 29.0338C174.178 28.9152 174.245 28.7544 174.245 28.5866C174.245 28.5866 174.245 28.5866 174.245 28.5866C174.244 28.5579 174.247 28.5713 174.24 28.4884C174.239 28.4774 174.237 28.4645 174.234 28.4469C174.233 28.438 174.231 28.4279 174.228 28.4159C174.221 28.4131 174.247 28.382 174.13 28.1891C174.08 28.1039 173.854 27.8777 173.532 27.9201C173.234 27.9666 173.136 28.1335 173.106 28.1637C173.072 28.2092 173.055 28.2406 173.043 28.2655C173.018 28.3145 173.011 28.3398 173.004 28.3604C172.98 28.4429 172.988 28.4211 172.983 28.4446C172.973 28.4959 172.971 28.5159 172.967 28.5404C172.96 28.5902 172.956 28.6307 172.951 28.674C172.941 28.757 172.932 28.8411 172.924 28.921C172.793 30.2767 172.693 31.6115 172.593 32.9584C172.593 32.961 172.593 32.9685 172.593 32.971C172.591 32.9951 172.59 33.0191 172.589 33.043C172.502 34.0005 173.267 35.0078 172.912 35.8983C172.912 35.8988 172.911 35.8992 172.911 35.8996C172.777 35.9715 172.669 35.8052 172.587 35.7095C172.502 35.5988 172.428 35.4805 172.358 35.3605C172.217 35.1202 172.088 34.8721 171.962 34.6239C171.89 34.4813 171.818 34.338 171.746 34.1948C171.746 34.1937 171.745 34.1929 171.744 34.1925C171.742 34.1921 171.741 34.1922 171.74 34.1927C171.739 34.1933 171.738 34.1942 171.738 34.1954C171.737 34.1965 171.738 34.1978 171.738 34.1989C171.738 34.1989 171.738 34.1989 171.738 34.1989C171.81 34.3421 171.881 34.4854 171.954 34.6281C172.08 34.8764 172.208 35.1245 172.35 35.3652C172.421 35.4853 172.494 35.6039 172.579 35.7151C172.663 35.81 172.768 35.9832 172.916 35.907C172.917 35.9065 172.917 35.9061 172.918 35.9056C173.278 35.0367 173.766 34.0373 173.852 33.1086C173.853 33.0853 173.855 33.0618 173.856 33.0383L173.855 33.0509C173.954 31.7114 174.055 30.3699 174.183 29.0482C174.19 28.9717 174.199 28.8915 174.207 28.8179C174.212 28.7801 174.216 28.7441 174.22 28.7123C174.222 28.6998 174.225 28.6785 174.223 28.6895C174.22 28.7012 174.228 28.6778 174.209 28.7446C174.203 28.7625 174.196 28.7857 174.173 28.8332C174.16 28.8573 174.144 28.8881 174.11 28.9331C174.081 28.9628 173.983 29.1291 173.686 29.1756C173.365 29.2179 173.139 28.992 173.089 28.9075C172.973 28.7157 173 28.6886 172.993 28.6857C172.99 28.6744 172.989 28.6652 172.987 28.6573C172.985 28.6415 172.983 28.6307 172.982 28.6222C172.978 28.5657 172.98 28.5886 172.98 28.5866Z" fill="#2D1909"/>
<path id="Vector 32" d="M167.767 30.181C167.693 30.2429 167.648 30.3314 167.64 30.4269C167.632 30.5224 167.662 30.6172 167.724 30.6904C167.786 30.7635 167.874 30.8091 167.97 30.8171C168.066 30.825 168.16 30.7947 168.233 30.7328C168.233 30.7328 168.233 30.7328 168.233 30.7328C168.421 30.5737 168.604 30.4198 168.792 30.2622C171.067 28.4497 173.461 26.1464 175.94 25.3624C175.941 25.3624 175.941 25.3624 175.942 25.3624L175.692 25.2631C175.742 25.263 175.874 25.678 175.895 26.0148C175.926 26.3702 175.909 26.7491 175.788 27.0903C175.787 27.0932 175.786 27.096 175.785 27.0989C175.559 27.7246 175.246 28.3146 174.911 28.8891C174.789 29.0997 174.663 29.3086 174.538 29.5176C174.537 29.5195 174.537 29.5217 174.537 29.5239C174.538 29.526 174.539 29.5278 174.541 29.529C174.543 29.5301 174.545 29.5304 174.547 29.5299C174.549 29.5294 174.551 29.528 174.552 29.5261C174.552 29.5261 174.552 29.5261 174.552 29.5261C174.678 29.3171 174.803 29.1081 174.926 28.8974C175.26 28.3226 175.574 27.7317 175.801 27.1045C175.802 27.1017 175.803 27.0988 175.804 27.0959C175.927 26.755 176.113 26.434 176.261 26.0736C176.372 25.7149 176.637 25.3064 176.19 24.7388C176.14 24.6916 176.008 24.6392 175.939 24.6396C175.937 24.6396 175.935 24.6396 175.933 24.6396C172.687 25.6364 170.716 27.865 168.328 29.7081C168.139 29.8665 167.955 30.0212 167.767 30.181Z" fill="#2D1909"/>
<path id="Vector 33" d="M168.43 43.0272C168.416 43.0375 168.407 43.053 168.404 43.0701C168.401 43.0873 168.406 43.1048 168.416 43.1188C168.426 43.1328 168.442 43.1421 168.459 43.1447C168.476 43.1473 168.494 43.1429 168.508 43.1326C168.508 43.1326 168.508 43.1326 168.508 43.1326C168.656 43.0236 168.804 42.9145 168.952 42.8054C171.617 40.8418 174.281 38.8782 176.946 36.9146C177.094 36.8055 177.242 36.6965 177.39 36.5874C177.404 36.5771 177.414 36.5616 177.416 36.5445C177.419 36.5273 177.415 36.5098 177.404 36.4958C177.394 36.4819 177.378 36.4725 177.361 36.4699C177.344 36.4673 177.327 36.4717 177.313 36.482C177.313 36.482 177.313 36.482 177.313 36.482C177.165 36.5911 177.017 36.7001 176.869 36.8092C174.204 38.7728 171.539 40.7364 168.874 42.7C168.726 42.8091 168.578 42.9182 168.43 43.0272Z" fill="#2D1909"/>
<path id="Vector 34" d="M179.902 26.2491C179.902 26.4399 179.978 26.623 180.113 26.7579C180.248 26.8929 180.431 26.9687 180.622 26.9687C180.812 26.9687 180.995 26.8929 181.13 26.7579C181.265 26.623 181.341 26.4399 181.341 26.2491C181.341 26.2491 181.341 26.2491 181.341 26.2491C181.341 26.2185 181.34 26.1831 181.333 26.1287C181.327 26.0977 181.332 26.0857 181.294 25.9734C181.252 25.8811 181.196 25.6893 180.879 25.5474C180.492 25.4038 180.224 25.6019 180.151 25.6605C180.105 25.6986 180.077 25.7293 180.054 25.755C180.011 25.8066 179.991 25.8402 179.981 25.8552C179.932 25.9354 179.923 25.9603 179.904 26.0002C179.876 26.0619 179.854 26.1148 179.834 26.1654C179.794 26.2677 179.763 26.355 179.729 26.4501C179.188 28.0385 178.75 29.593 178.3 31.1703C178.299 31.1744 178.295 31.1867 178.294 31.1909C178.29 31.2068 178.286 31.2226 178.282 31.2384C177.984 32.4271 177.74 33.6624 177.644 34.9073C177.642 34.9322 177.64 34.9571 177.639 34.982C177.61 35.4582 177.725 35.9409 177.863 36.3211C177.895 36.3954 177.898 36.4323 178 36.4402C178.097 36.4987 177.939 36.5307 177.843 36.5072C177.834 36.5058 177.825 36.5049 177.817 36.5061C177.809 36.5072 177.802 36.5104 177.797 36.5158C177.792 36.5211 177.789 36.5282 177.788 36.5364C177.787 36.5446 177.788 36.5532 177.79 36.5618C177.79 36.5618 177.79 36.5618 177.79 36.5618C177.827 36.6607 177.831 36.8377 178.118 36.8518C178.403 36.797 178.474 36.6271 178.561 36.5325C178.928 36.0048 179.033 35.5463 179.088 35.0949C179.09 35.0717 179.092 35.0484 179.094 35.0251C179.184 33.8691 179.392 32.732 179.679 31.587C179.683 31.5718 179.686 31.5566 179.69 31.5414L179.685 31.5619C180.129 30.0031 180.577 28.4242 181.086 26.9295C181.116 26.8444 181.144 26.7668 181.174 26.6917C181.188 26.6558 181.203 26.6195 181.211 26.6019C181.214 26.5944 181.223 26.5821 181.199 26.6218C181.193 26.6298 181.182 26.6498 181.146 26.693C181.127 26.7145 181.102 26.7418 181.059 26.7772C180.993 26.8305 180.731 27.0267 180.348 26.8849C180.036 26.7448 179.983 26.5569 179.943 26.471C179.908 26.3665 179.914 26.3587 179.908 26.3326C179.902 26.2881 179.902 26.2649 179.902 26.2491Z" fill="#2D1909"/>
<path id="Vector 35" d="M176.322 33.93C176.252 33.9553 176.194 34.0078 176.161 34.0759C176.129 34.1439 176.125 34.222 176.151 34.2929C176.176 34.3639 176.228 34.4218 176.296 34.454C176.364 34.4863 176.443 34.4902 176.513 34.4648C176.513 34.4648 176.513 34.4648 176.513 34.4648C176.623 34.4259 176.732 34.3869 176.841 34.348C178.804 33.6467 180.768 32.9454 182.731 32.2442C182.841 32.2052 182.95 32.1662 183.059 32.1273C183.13 32.1019 183.188 32.0495 183.22 31.9814C183.252 31.9134 183.256 31.8353 183.231 31.7644C183.205 31.6934 183.153 31.6355 183.085 31.6032C183.017 31.571 182.939 31.5671 182.868 31.5924C182.868 31.5924 182.868 31.5924 182.868 31.5924C182.759 31.6314 182.65 31.6704 182.54 31.7093C180.577 32.4106 178.613 33.1119 176.65 33.8131C176.541 33.8521 176.432 33.8911 176.322 33.93Z" fill="#2D1909"/>
<path id="Vector 36" d="M184.363 31.1135C184.537 31.1135 184.704 31.0443 184.828 30.9212C184.951 30.7981 185.02 30.6311 185.02 30.457C185.02 30.2829 184.951 30.116 184.828 29.9929C184.704 29.8698 184.537 29.8006 184.363 29.8006C184.363 29.8006 184.363 29.8006 184.363 29.8006C184.074 29.8124 183.969 29.8699 183.832 29.9164C183.705 29.9654 183.594 30.0188 183.487 30.0743C182.707 30.4952 182.101 31.0244 181.523 31.5882C181.513 31.5984 181.503 31.6086 181.492 31.6189C180.615 32.5684 180.862 33.8921 181.703 34.6498C181.726 34.6694 181.75 34.6886 181.774 34.7073C182.243 35.0519 182.667 35.1428 183.036 35.2574C183.218 35.3105 183.393 35.3603 183.521 35.4108C183.656 35.445 183.699 35.5685 183.578 35.3623C183.578 35.3616 183.577 35.3609 183.577 35.3603C183.532 35.0896 183.573 35.2658 183.472 35.373C183.388 35.4967 183.264 35.6363 183.13 35.7676C182.859 36.0323 182.54 36.2814 182.216 36.4904C182.215 36.491 182.214 36.4916 182.213 36.4921C181.887 36.708 181.515 36.9894 181.397 37.1658C181.388 37.2052 181.371 37.2895 181.294 37.2515C181.225 37.2186 181.163 37.1157 181.116 37.0068C181.114 37.0014 181.111 36.996 181.107 36.9918C181.104 36.9876 181.099 36.9847 181.094 36.9838C181.089 36.9829 181.084 36.984 181.079 36.9867C181.074 36.9893 181.07 36.9934 181.065 36.9976C181.065 36.9976 181.065 36.9976 181.065 36.9976C180.983 37.089 180.904 37.1964 180.886 37.3602C180.856 37.5218 180.996 37.7744 181.185 37.867C182.012 38.1916 182.499 37.8998 182.956 37.648C182.957 37.6472 182.958 37.6465 182.959 37.6458C183.371 37.3785 183.742 37.0785 184.092 36.7222C184.266 36.5425 184.434 36.351 184.592 36.1089C184.718 35.856 185.008 35.5979 184.822 34.8948C184.822 34.8929 184.821 34.891 184.82 34.889C184.55 34.3206 184.203 34.2789 183.996 34.1753C183.771 34.0911 183.579 34.0413 183.398 33.9899C183.044 33.8931 182.718 33.7822 182.577 33.6684C182.569 33.6626 182.562 33.6566 182.554 33.6503C182.239 33.4114 182.178 32.7309 182.419 32.5491C182.428 32.5398 182.437 32.5306 182.447 32.5215C182.958 32.0179 183.526 31.5414 184.094 31.2383C184.168 31.1997 184.241 31.1655 184.304 31.1414C184.358 31.1164 184.45 31.1063 184.363 31.1135Z" fill="#2D1909"/>
<path id="Vector 37" d="M196.383 30.4572C196.383 30.6173 196.447 30.7709 196.56 30.8842C196.673 30.9974 196.827 31.061 196.987 31.061C197.147 31.061 197.301 30.9974 197.414 30.8842C197.527 30.7709 197.591 30.6173 197.591 30.4572C197.591 30.4572 197.591 30.4572 197.591 30.4572C197.597 30.3015 197.528 30.0264 197.33 29.8584C197.137 29.6929 196.964 29.6679 196.845 29.6517C196.603 29.6302 196.459 29.6659 196.315 29.6965C196.039 29.7633 195.813 29.8548 195.593 29.9504C195.155 30.1444 194.758 30.3654 194.367 30.5989C193.59 31.0664 192.861 31.5801 192.151 32.1196C192.14 32.1277 192.129 32.1358 192.119 32.144C191.811 32.378 191.495 32.7255 191.371 33.2024C191.173 34.0024 191.568 34.7055 192.071 35.135C192.107 35.1649 192.144 35.1948 192.183 35.2228C193.035 35.8748 194.208 35.5967 194.876 35.1429C194.942 35.101 195.007 35.0574 195.071 35.0119C196.676 33.8762 197.713 32.1587 198.382 30.443C198.432 30.3173 198.483 30.1914 198.532 30.0806C198.493 30.145 198.521 30.2042 198.274 30.3852C198.16 30.4599 197.979 30.4973 197.846 30.4748C197.702 30.4515 197.646 30.4128 197.599 30.3862C197.432 30.2686 197.456 30.2566 197.433 30.2371C197.412 30.2078 197.419 30.2171 197.422 30.2255C197.431 30.2456 197.448 30.2844 197.465 30.323C197.5 30.4018 197.539 30.4924 197.582 30.5827C197.669 30.765 197.769 30.9561 197.911 31.1496C198.001 31.2713 198.106 31.3968 198.248 31.5191C198.916 32.0747 199.757 32.0659 200.41 31.8376C200.589 31.7743 200.76 31.6923 200.921 31.5935C204.491 28.9004 203.736 24.5335 203.702 21.1573C203.693 20.9523 203.684 20.7408 203.679 20.5439C203.674 20.3957 203.671 20.2926 203.665 20.1515C203.663 20.1241 203.662 20.0879 203.659 20.0458C203.658 20.0263 203.657 20.0084 203.655 19.9907C203.655 19.9829 203.654 19.9723 203.65 19.9407C203.641 19.9006 203.664 19.9168 203.595 19.7275C203.583 19.6991 203.566 19.6633 203.531 19.6111C203.512 19.5833 203.496 19.5607 203.451 19.5143C203.399 19.4622 203.319 19.3941 203.188 19.3476C202.91 19.231 202.552 19.4013 202.468 19.5128C202.36 19.6267 202.34 19.6915 202.319 19.7366C202.261 19.8972 202.276 19.8996 202.269 19.934C202.262 19.9978 202.265 19.9765 202.263 19.9945C202.262 20.0158 202.261 20.0363 202.26 20.0587C202.258 20.1114 202.258 20.1247 202.257 20.1625C202.253 20.4279 202.254 20.6778 202.255 20.9322C202.257 21.4388 202.264 21.9397 202.273 22.438C202.291 23.4374 202.318 24.4414 202.355 25.4441C202.44 27.4515 202.514 29.4467 202.821 31.4963C202.86 31.7329 202.9 31.9736 202.946 32.2205C202.99 32.4587 203.037 32.6997 203.111 32.9648C203.149 33.0983 203.192 33.2366 203.269 33.402C203.368 33.553 203.394 33.8204 203.945 34.0387C204.243 34.1277 204.588 34.1773 204.964 34.0956C206.186 33.7499 206.428 32.7406 206.66 32.0998C206.87 31.4032 206.98 30.7309 207.09 30.0751C207.306 28.8045 207.464 27.3623 207.983 26.6255C208.153 26.4046 208.378 26.2354 208.639 26.1311C208.954 26.002 209.339 25.9781 209.616 26.0663C209.788 26.1186 209.964 26.2553 210.103 26.4611C210.254 26.6807 210.355 26.9671 210.383 27.2485C210.408 27.4858 210.381 27.7246 210.305 27.9637C210.196 28.3088 209.981 28.6495 209.705 28.9607C209.532 29.1557 209.341 29.3344 209.136 29.4956C208.361 30.1097 207.279 30.495 206.342 30.5278C206.302 30.5282 206.253 30.5282 206.168 30.5471C206.146 30.5523 206.125 30.5578 206.094 30.5684C206.041 30.587 205.974 30.6154 205.897 30.6727C205.736 30.7631 205.579 31.1193 205.613 31.2837C205.665 31.6648 205.795 31.7004 205.808 31.7368C205.844 31.7748 205.872 31.7977 205.894 31.8154C205.956 31.8642 205.988 31.8813 206.017 31.8987C206.072 31.9302 206.109 31.9486 206.15 31.9684C206.225 32.0047 206.291 32.0335 206.359 32.062C206.492 32.1175 206.622 32.1668 206.753 32.2132C207.313 32.4069 207.871 32.5579 208.526 32.6093C208.862 32.6319 209.195 32.6074 209.514 32.5504C211.941 31.9936 213.414 30.2843 214.895 28.8155C215.037 28.6667 215.174 28.5124 215.306 28.3526C216.329 27.1174 216.978 25.4613 216.802 23.778C216.781 23.5287 216.654 23.2519 216.472 23.0716C215.605 22.3812 214.87 22.5742 214.157 22.9842C214.018 23.0801 213.901 23.1898 213.801 23.3034C213.157 24.0902 213.027 24.9106 212.939 25.7116C212.932 25.795 212.926 25.8784 212.922 25.9624C212.899 26.814 212.952 27.7501 213.624 28.6075C213.661 28.6518 213.699 28.6944 213.74 28.7357C214.375 29.402 215.446 29.5961 216.277 29.1804C216.294 29.1721 216.311 29.1637 216.328 29.155C217.277 28.6359 217.709 27.6693 217.746 26.7267C217.747 26.7035 217.747 26.6803 217.747 26.6569C217.694 25.796 217.623 25.1456 216.824 24.319C216.749 24.2629 216.659 24.198 216.497 24.149C216.339 24.0986 216.108 24.1058 215.94 24.183C215.769 24.2577 215.664 24.3643 215.591 24.4561C215.45 24.6436 215.402 24.8032 215.37 24.9645C215.333 25.2607 215.291 25.7114 215.82 26.0762C215.905 26.1267 215.995 26.1609 216.082 26.1812C216.605 26.2554 216.744 26.1258 216.951 26.0729C217.14 26.0054 217.302 25.937 217.459 25.8733C217.769 25.7465 218.062 25.6356 218.306 25.5925C218.338 25.5869 218.368 25.5825 218.396 25.5794C219.251 25.4636 220.187 27.0047 221.222 28.1875C221.269 28.2384 221.32 28.2921 221.37 28.3428C221.481 28.4623 221.706 28.5905 221.931 28.5947C222.155 28.601 222.297 28.5352 222.401 28.4818C222.599 28.3712 222.691 28.271 222.782 28.179C222.955 27.9948 223.072 27.8298 223.189 27.667C223.406 27.3593 223.647 26.9844 223.766 26.8711C223.769 26.8677 223.768 26.8712 223.744 26.8867C223.726 26.8984 223.638 26.9483 223.506 26.9374C223.374 26.9253 223.306 26.8663 223.296 26.8584C223.276 26.8369 223.344 26.9158 223.402 27.005C223.531 27.188 223.687 27.4592 224.017 27.7015C224.024 27.7066 224.031 27.7117 224.038 27.7167C225.09 28.3652 226.116 27.7496 226.631 27.1457C226.658 27.1147 226.683 27.0837 226.709 27.0516C228.12 25.0974 228.042 22.8474 227.837 20.7961C227.823 20.686 227.808 20.576 227.791 20.4685C227.776 20.3801 227.774 20.3399 227.725 20.1966C227.699 20.1401 227.685 20.0498 227.53 19.8879C227.489 19.834 227.238 19.6668 227.013 19.6899C226.786 19.7072 226.693 19.7803 226.609 19.84C226.377 20.0463 226.391 20.1056 226.337 20.1903C226.303 20.2599 226.275 20.3281 226.254 20.383C226.167 20.6136 226.111 20.8177 226.057 21.0227C225.953 21.427 225.869 21.8294 225.794 22.2288C225.646 23.0285 225.531 23.8309 225.466 24.6505C225.43 25.1306 225.405 25.6111 225.442 26.1312C225.443 26.143 225.447 26.1782 225.449 26.19C225.461 26.2617 225.473 26.3331 225.487 26.4049C225.643 27.2085 226.106 28.0544 226.865 28.5771C226.897 28.5995 226.93 28.6212 226.964 28.6422C227.348 28.8884 227.855 29.0108 228.297 28.8897C228.741 28.7736 229.061 28.4812 229.3 28.175C229.311 28.1607 229.316 28.1413 229.315 28.1221C229.314 28.1029 229.306 28.0854 229.294 28.0726C229.281 28.0597 229.264 28.0522 229.245 28.0506C229.226 28.049 229.206 28.0535 229.192 28.0642C229.192 28.0642 229.192 28.0642 229.192 28.0642C228.586 28.5454 227.84 28.4952 227.457 28.0162C227.439 27.9969 227.422 27.977 227.405 27.9566C227.018 27.4714 226.967 26.8025 226.838 26.1452C226.827 26.0865 226.816 26.0275 226.806 25.9677L226.813 26.0265C226.784 25.6343 226.799 25.1896 226.828 24.7499C226.881 23.993 226.978 23.2211 227.107 22.4642C227.172 22.0869 227.246 21.7056 227.335 21.3479C227.379 21.1701 227.43 20.9871 227.481 20.8494C227.493 20.818 227.507 20.7844 227.514 20.7703C227.508 20.7618 227.567 20.7327 227.411 20.8766C227.348 20.9196 227.272 20.9835 227.071 20.999C226.869 21.0194 226.648 20.8703 226.619 20.829C226.496 20.6981 226.506 20.6615 226.495 20.6457C226.485 20.6142 226.494 20.6395 226.498 20.6698C226.513 20.7648 226.527 20.8632 226.539 20.962C226.758 22.8119 226.693 24.9155 225.687 26.2422C225.672 26.2603 225.658 26.2775 225.643 26.2946C225.355 26.6605 224.879 26.7464 224.781 26.6384C224.78 26.6376 224.778 26.6369 224.777 26.6361C224.722 26.6012 224.615 26.4682 224.479 26.265C224.403 26.1615 224.339 26.0416 224.141 25.8649C224.043 25.7815 223.867 25.6595 223.617 25.638C223.367 25.6164 223.163 25.7106 223.046 25.7853C222.974 25.8314 222.924 25.8745 222.882 25.9125C222.475 26.3338 222.345 26.6142 222.123 26.9098C222.022 27.0509 221.919 27.1867 221.834 27.2748C221.796 27.317 221.75 27.3468 221.784 27.325C221.805 27.3161 221.858 27.2816 221.987 27.2844C222.118 27.2853 222.258 27.3685 222.302 27.4195C222.265 27.3823 222.226 27.3409 222.188 27.3004C221.727 26.7938 221.291 26.1481 220.743 25.5392C220.209 24.9696 219.449 24.1728 218.253 24.2781C218.193 24.2847 218.134 24.2935 218.077 24.3036C217.643 24.3839 217.292 24.5298 216.966 24.6606C216.804 24.7264 216.649 24.7909 216.514 24.8391C216.399 24.8935 216.198 24.8935 216.378 24.9059C216.411 24.9135 216.45 24.9278 216.488 24.9503C216.729 25.1385 216.641 25.2052 216.656 25.1928C216.653 25.1959 216.662 25.1985 216.619 25.2576C216.596 25.2859 216.553 25.3366 216.456 25.3792C216.362 25.4238 216.217 25.4273 216.136 25.3999C216.055 25.3744 216.036 25.3537 216.027 25.3482C216.046 25.3482 216.234 25.6545 216.302 25.8892C216.385 26.14 216.431 26.4078 216.429 26.6462C216.429 26.6596 216.429 26.6729 216.428 26.6862C216.42 27.2272 216.11 27.7924 215.721 27.9884C215.715 27.9919 215.708 27.9952 215.702 27.9985C215.372 28.1657 214.934 28.0922 214.673 27.8203C214.656 27.8033 214.64 27.7856 214.624 27.7672C214.314 27.4051 214.186 26.6918 214.221 26.023C214.224 25.9568 214.228 25.8907 214.234 25.8243C214.287 25.191 214.476 24.5084 214.777 24.1668C214.82 24.1188 214.862 24.0812 214.9 24.0542C214.982 23.994 215.146 23.9401 215.295 23.9363C215.444 23.9237 215.579 23.9933 215.545 23.9761C215.533 23.9668 215.512 23.9193 215.513 23.9103C215.649 25.1849 215.158 26.5029 214.305 27.5323C214.196 27.6652 214.082 27.7942 213.961 27.9192C212.555 29.3562 210.998 30.8972 209.284 31.2373C209.064 31.2748 208.847 31.2824 208.637 31.2597C208.202 31.2104 207.699 31.056 207.229 30.8865C207.119 30.8465 207.01 30.8038 206.908 30.7606C206.857 30.7387 206.809 30.7167 206.769 30.6973C206.749 30.6876 206.732 30.6778 206.731 30.6773C206.733 30.6786 206.735 30.6772 206.776 30.7086C206.79 30.7204 206.811 30.7374 206.842 30.7702C206.852 30.8029 206.974 30.8285 207.026 31.2034C207.059 31.3649 206.904 31.7172 206.746 31.8052C206.671 31.8612 206.606 31.8885 206.556 31.9062C206.527 31.9162 206.507 31.9214 206.487 31.9262C206.408 31.9436 206.367 31.9429 206.337 31.9434C207.729 31.8966 208.953 31.4407 210.02 30.6227C210.293 30.4088 210.548 30.1684 210.778 29.9059C211.148 29.4833 211.475 28.9822 211.661 28.391C211.79 27.9838 211.841 27.5346 211.792 27.0972C211.734 26.5898 211.567 26.1039 211.271 25.6657C210.998 25.2629 210.584 24.889 210.048 24.7169C209.376 24.509 208.717 24.5712 208.113 24.8038C207.623 24.9953 207.177 25.3254 206.852 25.7426C205.884 27.2205 205.917 28.5431 205.648 29.8348C205.539 30.4739 205.426 31.1083 205.254 31.6662C205.097 32.2313 204.777 32.6771 204.647 32.6549C204.591 32.6678 204.496 32.6688 204.358 32.6307C204.685 32.7751 204.586 32.8176 204.584 32.7679C204.562 32.7259 204.53 32.6442 204.504 32.5568C204.449 32.3785 204.402 32.1679 204.361 31.953C204.318 31.7286 204.279 31.4963 204.239 31.26C203.945 29.3785 203.85 27.3626 203.758 25.3879C203.716 24.3961 203.684 23.4004 203.663 22.4107C203.652 21.9174 203.644 21.4211 203.64 20.9237C203.638 20.676 203.637 20.4241 203.641 20.1889C203.641 20.1573 203.641 20.1441 203.643 20.1087C203.643 20.0946 203.644 20.0843 203.644 20.0808C203.644 20.0824 203.645 20.068 203.643 20.0928C203.636 20.1148 203.653 20.109 203.597 20.2659C203.576 20.3101 203.557 20.3742 203.449 20.4877C203.366 20.5988 203.007 20.7689 202.73 20.6525C202.6 20.606 202.519 20.538 202.467 20.4861C202.423 20.44 202.407 20.4175 202.388 20.3899C202.353 20.3381 202.337 20.3028 202.325 20.2751C202.258 20.091 202.284 20.1202 202.277 20.1014C202.276 20.0947 202.277 20.1021 202.277 20.1037C202.277 20.1094 202.278 20.1193 202.279 20.1323C202.281 20.1606 202.282 20.1922 202.283 20.2158C202.289 20.3405 202.293 20.4418 202.297 20.5851C202.303 20.795 202.313 21.0122 202.322 21.2198C202.463 24.5789 202.718 28.696 200.201 30.4194C200.122 30.468 200.038 30.5081 199.952 30.5383C199.633 30.6565 199.286 30.6043 199.144 30.4705C199.113 30.4442 199.067 30.3946 199.022 30.3323C198.948 30.2328 198.869 30.106 198.79 29.9652C198.751 29.8947 198.711 29.8199 198.666 29.7363C198.643 29.6938 198.62 29.6499 198.586 29.5905C198.567 29.5589 198.552 29.5285 198.504 29.4623C198.468 29.4251 198.479 29.3947 198.292 29.264C198.24 29.2346 198.179 29.1936 198.03 29.1693C197.89 29.146 197.704 29.1845 197.585 29.2622C197.328 29.4508 197.353 29.5174 197.308 29.5948C197.26 29.7275 197.218 29.8499 197.171 29.9715C196.576 31.5787 195.684 33.0592 194.359 34.0185C194.313 34.0516 194.268 34.0828 194.222 34.1122C193.724 34.4374 193.226 34.5008 192.895 34.2471C192.88 34.236 192.864 34.2236 192.848 34.2106C192.605 34.009 192.479 33.6876 192.54 33.506C192.57 33.3835 192.673 33.2388 192.851 33.1042C192.861 33.0964 192.872 33.0886 192.882 33.0808C193.566 32.5615 194.266 32.0691 194.988 31.6347C195.35 31.4184 195.716 31.2164 196.079 31.0559C196.258 30.9771 196.443 30.9071 196.591 30.8723C196.661 30.854 196.735 30.8519 196.712 30.8522C196.7 30.8482 196.637 30.8527 196.527 30.7605C196.413 30.6649 196.378 30.5014 196.383 30.4572Z" fill="#2D1909"/>
<path id="Vector 38" d="M227.341 24.7846C227.324 24.7937 227.312 24.809 227.307 24.8271C227.302 24.8452 227.304 24.8646 227.313 24.8811C227.322 24.8976 227.337 24.9097 227.355 24.9149C227.374 24.92 227.393 24.9178 227.409 24.9087C227.409 24.9087 227.409 24.9087 227.409 24.9087C227.496 24.8606 227.583 24.8124 227.669 24.7644C228.575 24.2768 229.474 23.7143 230.417 23.3737C230.441 23.3679 230.466 23.3636 230.484 23.363C230.528 23.3805 230.475 23.3178 230.485 23.3511C230.477 23.3771 230.454 23.4139 230.429 23.4475C230.38 23.5141 230.319 23.5796 230.258 23.6424C230.134 23.7683 230 23.887 229.863 24.0027C229.59 24.2336 229.304 24.451 229.011 24.6605C228.93 24.7179 228.85 24.7745 228.768 24.831C228.764 24.8337 228.761 24.8378 228.76 24.8426C228.759 24.8473 228.76 24.8522 228.762 24.8562C228.765 24.8603 228.769 24.8632 228.774 24.8643C228.778 24.8654 228.783 24.8646 228.787 24.8622C228.787 24.8622 228.787 24.8622 228.787 24.8622C228.874 24.8125 228.959 24.7621 229.044 24.7105C229.353 24.5221 229.653 24.3193 229.939 24.0958C230.082 23.9835 230.222 23.8669 230.354 23.7385C230.419 23.6741 230.484 23.607 230.541 23.5311C230.571 23.4909 230.599 23.4529 230.62 23.3932C230.627 23.3657 230.645 23.3116 230.595 23.2582C230.545 23.2156 230.511 23.2224 230.479 23.2212C230.445 23.2225 230.414 23.2286 230.384 23.2356C229.381 23.5971 228.514 24.1501 227.6 24.6403C227.514 24.6883 227.427 24.7365 227.341 24.7846Z" fill="#2D1909"/>
<path id="Vector 39" d="M201.091 43.5474C201.091 43.6992 201.151 43.8447 201.259 43.9519C201.366 44.0592 201.511 44.1195 201.663 44.1195C201.815 44.1195 201.96 44.0592 202.068 43.9519C202.175 43.8447 202.235 43.6992 202.235 43.5474C202.235 43.5474 202.235 43.5474 202.235 43.5474C202.183 42.6043 202.145 41.8196 202.179 40.9629C202.187 40.726 202.201 40.4891 202.218 40.2534C202.222 40.2029 202.227 40.1522 202.231 40.1011C202.252 40.0888 202.161 40.2454 202.124 40.2453C202.096 40.256 202.169 40.2438 202.25 40.2631C202.421 40.2965 202.639 40.3968 202.802 40.5138C202.834 40.5371 202.865 40.5615 202.892 40.5855C203.692 41.3402 203.646 43.1296 203.462 44.5812C203.447 44.6923 203.431 44.8055 203.413 44.9153C203.407 44.9543 203.403 44.9845 203.398 45.0179C203.395 45.0409 203.392 45.0614 203.389 45.0834C203.389 45.0891 203.385 45.1175 203.383 45.1626C203.383 45.175 203.382 45.1897 203.383 45.2113C203.383 45.2222 203.384 45.2348 203.385 45.2508C203.386 45.2591 203.387 45.2671 203.388 45.2784C203.407 45.3342 203.366 45.407 203.564 45.6546C203.661 45.7777 203.946 45.9083 204.162 45.8619C204.376 45.8237 204.468 45.7331 204.524 45.6836C204.63 45.5774 204.639 45.5372 204.659 45.5044C204.694 45.4341 204.675 45.4709 204.683 45.4552C204.688 45.4437 204.691 45.4346 204.694 45.4266C204.749 45.2669 204.746 45.2552 204.768 45.1813C204.802 45.0554 204.832 44.9441 204.866 44.8216C204.93 44.5864 204.998 44.3515 205.068 44.1177C205.208 43.654 205.361 43.1925 205.53 42.7432C205.868 41.8579 206.278 40.9468 206.818 40.3634C206.846 40.3346 206.873 40.3084 206.902 40.2846C207.2 40.0158 207.63 40.047 207.881 40.289C207.895 40.3027 207.909 40.3167 207.922 40.3311C208.537 40.9966 208.429 42.438 208.159 43.6989C208.158 43.7063 208.156 43.7136 208.155 43.7209C208.142 43.7831 208.136 43.8126 208.124 43.881C208.119 43.9086 208.114 43.934 208.107 43.9845C208.104 44.005 208.105 43.98 208.099 44.0672C208.098 44.0887 208.096 44.1141 208.101 44.1693C208.121 44.2281 208.071 44.3054 208.283 44.5735C208.367 44.7013 208.744 44.8576 208.968 44.7719C209.187 44.7059 209.251 44.6176 209.3 44.5713C209.385 44.4734 209.393 44.4413 209.41 44.4122C209.471 44.2762 209.447 44.3224 209.462 44.2847C209.505 44.1529 209.525 44.0788 209.556 43.9773C209.612 43.7884 209.669 43.6016 209.727 43.415C209.843 43.0457 209.965 42.6779 210.097 42.3199C210.229 41.9621 210.37 41.6126 210.53 41.2906C210.608 41.1319 210.693 40.9794 210.778 40.8534C210.855 40.7303 210.973 40.6251 210.946 40.6493C211.007 40.6303 210.922 40.632 210.989 40.6488C211.293 40.7858 211.788 41.5763 212.156 42.2335C212.557 42.9237 212.911 43.6554 213.525 44.383C213.829 44.7436 214.33 44.9253 214.731 44.925C215.643 44.9115 216.287 44.4928 216.814 43.9419C217.02 43.7141 217.179 43.4698 217.31 43.2226C217.756 42.351 217.927 41.4547 217.942 40.5281C217.943 40.3145 217.933 40.099 217.906 39.8806C217.776 39.2656 217.803 38.4686 216.706 37.9123C216.374 37.7931 216.033 37.8356 215.783 37.9261C215.045 38.2229 214.7 38.7387 214.438 39.2768C214.367 39.4325 214.31 39.5918 214.266 39.7513C214.031 40.6245 214.123 41.4969 214.4 42.2904C214.437 42.3938 214.477 42.4957 214.521 42.596C214.905 43.4651 215.54 44.2477 216.447 44.7169C216.505 44.7465 216.564 44.7743 216.623 44.8003C216.983 44.9588 217.341 45.0305 217.672 45.0686C218.584 45.1605 219.428 45.0816 220.359 44.9688C220.364 44.9682 220.368 44.9668 220.372 44.9642C220.376 44.9616 220.378 44.958 220.379 44.9538C220.38 44.9497 220.38 44.9452 220.378 44.9412C220.375 44.9371 220.372 44.9338 220.368 44.9312C220.368 44.9312 220.368 44.9312 220.368 44.9312C219.611 44.3902 218.74 44.0279 217.948 43.7772C217.665 43.6838 217.411 43.5988 217.195 43.5031C217.159 43.4872 217.124 43.4707 217.09 43.4533C216.546 43.1781 216.079 42.6411 215.809 42.0301C215.778 41.96 215.75 41.8889 215.724 41.817C215.522 41.2617 215.469 40.6386 215.61 40.1206C215.636 40.0262 215.668 39.9357 215.705 39.8515C215.83 39.5538 216.103 39.2737 216.246 39.2331C216.289 39.2184 216.277 39.2321 216.242 39.2198C216.192 39.1872 216.309 39.2705 216.373 39.4409C216.445 39.6072 216.495 39.8232 216.522 40.0481C216.541 40.2013 216.549 40.3603 216.549 40.5218C216.543 41.2303 216.388 41.9875 216.083 42.5767C215.996 42.7432 215.896 42.8932 215.788 43.0128C215.517 43.324 215.047 43.5614 214.762 43.548C214.636 43.5416 214.603 43.5182 214.56 43.474C213.585 42.4168 213.447 40.7842 211.568 39.3973C211.219 39.2096 210.63 39.2236 210.286 39.4375C209.615 39.8873 209.519 40.2874 209.293 40.6763C209.099 41.0695 208.945 41.454 208.801 41.8418C208.658 42.2289 208.529 42.6172 208.409 43.0025C208.348 43.1967 208.289 43.3911 208.232 43.5811C208.204 43.6762 208.174 43.7769 208.152 43.8435C208.156 43.8369 208.13 43.8909 208.177 43.7877C208.192 43.7621 208.198 43.7323 208.283 43.6357C208.331 43.5901 208.394 43.5022 208.613 43.4363C208.836 43.3508 209.212 43.5069 209.297 43.6343C209.508 43.9018 209.458 43.9777 209.477 44.0343C209.482 44.0872 209.48 44.1095 209.479 44.1272C209.475 44.191 209.476 44.1637 209.476 44.1725C209.475 44.1754 209.479 44.1492 209.483 44.1312C209.493 44.0786 209.499 44.049 209.51 43.9911C209.511 43.9841 209.513 43.9769 209.514 43.9695C209.744 42.6089 210.151 40.9358 208.919 39.4072C208.89 39.3763 208.86 39.346 208.83 39.3163C208.084 38.5625 206.76 38.5684 206.022 39.2515C205.955 39.3078 205.894 39.3668 205.835 39.4288C205.027 40.3259 204.641 41.3007 204.263 42.2663C204.081 42.7513 203.92 43.2406 203.773 43.7283C203.7 43.9739 203.63 44.2201 203.563 44.4637C203.528 44.5901 203.497 44.7063 203.464 44.8281C203.453 44.8749 203.419 44.9874 203.434 44.9432C203.436 44.9381 203.438 44.9316 203.442 44.9224C203.449 44.9089 203.432 44.9423 203.463 44.8794C203.482 44.8492 203.49 44.8106 203.594 44.7053C203.65 44.6562 203.742 44.5659 203.956 44.5278C204.171 44.4815 204.456 44.6119 204.552 44.7347C204.75 44.9816 204.708 45.0529 204.727 45.1065C204.728 45.1173 204.729 45.1249 204.73 45.1326C204.731 45.1476 204.732 45.1592 204.732 45.1688C204.733 45.188 204.732 45.1998 204.732 45.2088C204.73 45.243 204.73 45.2382 204.73 45.2378C204.73 45.2352 204.732 45.2245 204.734 45.2091C204.737 45.1863 204.741 45.1601 204.747 45.1249C204.766 45.0034 204.783 44.8784 204.799 44.7558C204.925 43.1302 205.249 41.239 203.688 39.6415C203.625 39.5899 203.561 39.5425 203.497 39.4993C203.171 39.2865 202.835 39.1473 202.422 39.0904C202.214 39.0687 201.979 39.0519 201.677 39.1746C201.359 39.2798 201.085 39.7217 201.09 40.0044C201.086 40.0589 201.082 40.113 201.078 40.1667C201.059 40.4178 201.045 40.6697 201.035 40.9209C200.999 41.7997 201.044 42.7584 201.091 43.5474Z" fill="#2D1909"/>
<path id="Vector 40" d="M225.514 44.503C225.519 44.5008 225.524 44.4965 225.526 44.4911C225.528 44.4857 225.528 44.4797 225.526 44.4742C225.524 44.4688 225.52 44.4644 225.514 44.4621C225.509 44.4598 225.503 44.4597 225.497 44.4619C225.497 44.4619 225.497 44.4619 225.497 44.4619C225.458 44.4775 225.419 44.493 225.38 44.5086C224.679 44.7891 223.978 45.0696 223.277 45.3501C223.238 45.3657 223.199 45.3813 223.16 45.3969C223.154 45.399 223.15 45.4033 223.148 45.4087C223.145 45.4141 223.145 45.4202 223.147 45.4256C223.15 45.4311 223.154 45.4354 223.159 45.4378C223.165 45.4401 223.171 45.4401 223.176 45.438C223.176 45.438 223.176 45.438 223.176 45.438C223.215 45.4224 223.254 45.4068 223.293 45.3912C223.994 45.1107 224.696 44.8302 225.397 44.5497C225.436 44.5341 225.475 44.5185 225.514 44.503Z" fill="#2D1909"/>
<path id="Vector 41" d="M225.506 44.4824L223.168 45.4174" stroke="#2D1909" stroke-width="0.944063" stroke-linecap="round" stroke-linejoin="round"/>
<g id="Frame 427319861">
<path id="Vector 2" d="M29.4952 38.5772C29.6016 38.5059 29.6753 38.3952 29.7001 38.2696C29.7249 38.144 29.6988 38.0136 29.6274 37.9072C29.5561 37.8009 29.4455 37.7272 29.3199 37.7024C29.1942 37.6776 29.0639 37.7037 28.9575 37.775C28.9575 37.775 28.9575 37.775 28.9575 37.775C27.8116 38.5431 26.6958 39.3563 25.6164 40.2161C18.2733 45.9608 13.0221 54.1324 10.169 62.9389C10.0848 63.1919 10.002 63.4458 9.92063 63.7007C7.88835 69.8387 8.57479 76.577 10.5828 82.5544C10.6899 82.9035 10.7951 83.2449 10.8901 83.5823C10.9313 83.7249 10.9538 83.8039 11.0164 83.9632C11.0449 84.0313 11.0691 84.0924 11.1307 84.1933C11.1655 84.2443 11.1727 84.2679 11.2676 84.3614C11.3533 84.4327 11.478 84.5482 11.7577 84.5217C12.0271 84.4676 12.0822 84.3632 12.1495 84.2952C12.2146 84.2129 12.2311 84.1756 12.2555 84.1297C12.3026 84.0347 12.325 83.9676 12.3476 83.8995C12.3941 83.753 12.4194 83.6423 12.4459 83.5213C12.545 83.0501 12.6043 82.5983 12.664 82.1467C12.7801 81.2426 12.8766 80.3512 12.9853 79.4613C13.2134 77.6976 13.4124 75.8652 13.972 74.3007C14.0125 74.1968 14.0555 74.0938 14.101 73.9917C14.7866 72.4725 15.9783 71.1396 17.3568 70.1649C17.3585 70.1645 17.3397 70.1735 17.3269 70.1739C17.2691 70.1393 17.5705 70.2914 17.739 70.5155C17.9281 70.7368 18.0999 71.0056 18.2395 71.2803L18.1995 71.1731C18.219 71.2506 18.2383 71.3275 18.2573 71.4039C18.7666 73.4405 19.2313 75.4859 19.6472 77.5435C19.7101 77.8531 19.7722 78.1632 19.834 78.4723C19.8376 78.4904 19.8413 78.5086 19.845 78.527C19.931 79.0349 20.177 79.7058 20.6338 80.116C21.0775 80.5351 21.5966 80.7618 22.1132 80.9174C22.1655 80.9324 22.2224 80.9333 22.2743 80.9144C22.3262 80.8956 22.3686 80.859 22.3928 80.8114C22.4171 80.7637 22.4217 80.708 22.4064 80.6549C22.3911 80.6018 22.3568 80.5563 22.314 80.523C22.314 80.523 22.314 80.523 22.314 80.523C21.4705 79.8707 20.9783 79.2842 20.8591 78.3232C20.8555 78.3055 20.852 78.2875 20.8484 78.2695C20.7865 77.9603 20.7241 77.6489 20.6609 77.3376C20.2418 75.2666 19.7716 73.2029 19.2591 71.1537C19.2399 71.0768 19.2205 70.9994 19.201 70.9214C19.1952 70.8986 19.1715 70.835 19.1609 70.8141C18.9862 70.4717 18.785 70.1504 18.5249 69.843C18.2457 69.5657 17.9992 69.1435 17.221 69.1422C17.0559 69.1577 16.8901 69.2244 16.7663 69.3114C15.2299 70.3959 13.9327 71.8146 13.1374 73.5619C13.0851 73.6792 13.0354 73.798 12.9887 73.9183C12.3443 75.7422 12.182 77.5404 11.9508 79.3374C11.8447 80.2345 11.7516 81.1295 11.6413 82.0163C11.5854 82.4558 11.5267 82.9032 11.443 83.3068C11.4216 83.4074 11.3998 83.4995 11.3725 83.5858C11.3606 83.6235 11.3467 83.6586 11.3412 83.6694C11.3405 83.6723 11.3357 83.6749 11.3586 83.6457C11.3873 83.6224 11.4094 83.5512 11.6172 83.5084C11.8356 83.4879 11.922 83.5792 11.9616 83.61C12.0026 83.6508 11.9941 83.6476 11.9966 83.6495C11.9933 83.6451 11.9771 83.6133 11.9631 83.5785C11.9269 83.4876 11.9058 83.4206 11.8724 83.3046C11.7708 82.9486 11.6632 82.6041 11.5549 82.2542C9.55872 76.3496 8.89175 69.917 10.8408 63.9943C10.9209 63.7432 11.0023 63.4931 11.0853 63.2439C13.8997 54.5694 19.0252 46.6032 26.2182 40.9714C27.2759 40.1288 28.3703 39.3312 29.4952 38.5772Z" fill="#2D1909"/>
<path id="Vector 3" d="M23.4909 82.1228C23.4909 82.0319 23.4549 81.9448 23.3906 81.8806C23.3264 81.8164 23.2393 81.7803 23.1484 81.7803C23.0576 81.7803 22.9705 81.8164 22.9063 81.8806C22.842 81.9448 22.8059 82.0319 22.8059 82.1228C22.8059 82.1228 22.8059 82.1228 22.8059 82.1228C22.8776 82.692 23.0252 82.9914 23.1658 83.3999C23.4418 84.1326 23.7662 84.8433 24.1531 85.5287C24.2355 85.6741 24.3212 85.8185 24.4103 85.9608C24.5097 86.1195 24.6056 86.2624 24.6988 86.3906C24.7898 86.5169 24.9238 86.6849 25.0322 86.7985C25.1718 86.9412 25.2817 87.0542 25.51 87.1752C25.6849 87.2835 26.0883 87.3228 26.3158 87.1356C27.0218 86.4154 26.9253 85.7344 27.0461 85.0736C27.1801 83.7567 27.1647 82.447 27.1338 81.1422C27.0688 78.6064 26.8313 75.7163 26.6967 73.5715L25.9592 73.499C25.9722 73.5504 25.988 73.7241 25.9963 73.855C26.0338 74.3443 26.2831 74.8389 26.4421 75.3516C26.4587 75.3728 26.4351 75.3911 26.5163 75.4268C26.6105 75.41 26.584 75.3749 26.5987 75.3602C26.612 75.3236 26.6196 75.2888 26.6276 75.2564C26.7161 74.8285 26.7499 74.4056 26.7937 73.9783C26.8318 73.5773 26.8644 73.1757 26.8923 72.7728C26.8923 72.7718 26.892 72.7709 26.8914 72.7701C26.8907 72.7694 26.8899 72.7689 26.8889 72.7688C26.8879 72.7688 26.887 72.7691 26.8862 72.7697C26.8855 72.7703 26.885 72.7712 26.8849 72.7722C26.8849 72.7722 26.8849 72.7722 26.8849 72.7722C26.8449 73.174 26.8037 73.5746 26.7554 73.9741C26.7013 74.3982 26.6531 74.8259 26.5474 75.2351C26.5386 75.2647 26.5269 75.2976 26.5131 75.3207C26.5142 75.3322 26.4721 75.3396 26.5321 75.3235C26.5796 75.3461 26.55 75.3298 26.5543 75.3173C26.5478 74.8371 26.8244 74.3173 26.7865 73.8024C26.7731 73.6451 26.7756 73.5254 26.724 73.2942C26.6184 72.9002 26.1666 72.8557 25.9865 73.2216C25.956 76.2247 26.3328 78.5247 26.3955 81.1655C26.439 82.4529 26.4643 83.7515 26.3463 85.0005C26.3137 85.3229 26.2696 85.634 26.2034 85.9149C26.1398 86.2045 26.0089 86.5142 25.916 86.5716C25.8861 86.5858 25.9062 86.5944 25.8169 86.5582C25.7247 86.5112 25.635 86.4343 25.5316 86.3262C25.4486 86.2401 25.334 86.0981 25.2533 85.9866C25.1709 85.8737 25.0833 85.7439 24.9909 85.5968C24.9075 85.4639 24.8269 85.3283 24.7491 85.191C24.3835 84.5439 24.0703 83.8583 23.8073 83.1597C23.7389 82.977 23.6729 82.789 23.6154 82.6063C23.5601 82.4352 23.495 82.1877 23.4909 82.1228Z" fill="#2D1909"/>
<path id="Vector 4" d="M30.0965 60.1695C30.1018 60.0624 30.0644 59.9576 29.9924 59.8781C29.9204 59.7987 29.8198 59.751 29.7127 59.7457C29.6057 59.7405 29.5009 59.7779 29.4214 59.8499C29.3419 59.9219 29.2943 60.0225 29.289 60.1295C29.289 60.1295 29.289 60.1295 29.289 60.1295C29.258 60.7568 29.2338 61.3478 29.2138 61.9718C29.0361 70.8157 29.3852 80.646 35.449 87.8272C35.458 87.8377 35.4867 87.8661 35.4972 87.8749C35.4983 87.8758 35.4994 87.8767 35.5005 87.8776C36.3872 88.6186 37.4854 89.0656 38.5102 89.5417C38.5109 89.542 38.5115 89.5423 38.5122 89.5426C39.3285 89.9254 40.1811 90.2007 41.0276 90.4765C41.6088 90.664 42.1922 90.8475 42.7754 91.0293C42.7815 91.0312 42.7883 91.0306 42.7941 91.0276C42.7999 91.0246 42.8043 91.0195 42.8064 91.0134C42.8084 91.0072 42.808 91.0005 42.8051 90.9947C42.8022 90.9888 42.7972 90.9842 42.7911 90.982C42.7911 90.982 42.7911 90.982 42.7911 90.982C42.2157 90.7773 41.6383 90.5753 41.0644 90.3687C40.2286 90.0652 39.3899 89.7597 38.6148 89.3383C38.6142 89.3379 38.6136 89.3376 38.6129 89.3372C37.6245 88.8025 36.8591 87.9594 36.0189 87.2572C36.0178 87.2563 36.0168 87.2554 36.0157 87.2545L36.0639 87.3022C30.2422 80.4415 29.8335 70.7794 30.022 61.9975C30.0417 61.3786 30.0658 60.7921 30.0965 60.1695Z" fill="#2D1909"/>
<path id="Vector 5" d="M30.5715 64.7679C30.5565 64.6589 30.4987 64.5603 30.4109 64.4938C30.3232 64.4273 30.2126 64.3984 30.1036 64.4135C29.9945 64.4285 29.8959 64.4862 29.8294 64.574C29.7629 64.6618 29.734 64.7723 29.7491 64.8814C29.7491 64.8814 29.7491 64.8814 29.7491 64.8814C29.8827 65.8395 30.0994 66.7865 30.3422 67.7057C33.1618 76.8697 37.0994 86.0191 44.2929 92.7178C44.3053 92.7278 44.3442 92.7534 44.3582 92.7608C44.372 92.7682 44.386 92.7755 44.3999 92.7829C50.8543 95.796 57.6492 97.6917 64.602 98.9717C64.6444 98.9786 64.754 98.9702 64.7948 98.9569C64.798 98.9559 64.8013 98.9548 64.8045 98.9538C65.3075 98.7911 65.6883 98.4425 65.9826 98.1062C66.6299 97.3465 67.0815 96.5109 67.6004 95.7106C67.6068 95.7006 67.6089 95.6879 67.6068 95.6756C67.6047 95.6634 67.5984 95.6526 67.589 95.6453C67.5796 95.6381 67.5676 95.6348 67.5552 95.6358C67.5428 95.6369 67.5311 95.6422 67.523 95.651C67.523 95.651 67.523 95.651 67.523 95.651C66.8777 96.3448 66.1859 97.0227 65.4913 97.6023C65.1738 97.8614 64.8672 98.0703 64.5472 98.1717C64.545 98.1724 64.5429 98.1731 64.5407 98.1738L64.7335 98.159C57.9085 96.906 51.0438 94.9731 44.7869 92.0484C44.7737 92.0414 44.7605 92.0345 44.7475 92.0275L44.8127 92.0705C37.9232 85.6822 33.8859 76.4715 31.1446 67.4928C30.9074 66.5957 30.6977 65.6739 30.5715 64.7679Z" fill="#2D1909"/>
<path id="Vector 6" d="M39.8172 104.608C39.9529 104.526 40.0507 104.394 40.0892 104.241C40.1277 104.088 40.1037 103.925 40.0225 103.79C39.9413 103.654 39.8095 103.556 39.6561 103.518C39.5027 103.479 39.3403 103.503 39.2046 103.584C39.2046 103.584 39.2046 103.584 39.2046 103.584C38.1248 104.231 37.1492 104.816 36.0778 105.461C26.8133 111.253 17.2634 116.174 8.67524 123.486C8.66404 123.502 8.65319 123.516 8.6427 123.531C8.18283 124.228 8.48317 124.874 8.66941 125.27C8.88637 125.692 9.15157 126.035 9.43218 126.357C9.43705 126.363 9.44193 126.369 9.44682 126.374C13.718 130.593 19.6996 128.97 24.6013 128.509C24.6112 128.507 24.6405 128.502 24.6502 128.5C24.6616 128.497 24.673 128.495 24.6844 128.492C28.875 127.521 33.058 126.387 37.1243 124.915C37.132 124.912 37.1348 124.911 37.1376 124.91C37.7485 124.665 38.3469 124.4 38.9474 124.143C40.0563 123.664 41.1808 123.225 42.3201 122.809C42.3232 122.808 42.3258 122.805 42.3273 122.802C42.3287 122.799 42.329 122.796 42.3279 122.793C42.3269 122.789 42.3246 122.787 42.3216 122.785C42.3186 122.784 42.3151 122.783 42.3119 122.784C42.3119 122.784 42.3119 122.784 42.3119 122.784C41.151 123.136 40.0015 123.515 38.8639 123.932C38.2482 124.157 37.6381 124.385 37.0205 124.591C37.0176 124.592 37.0147 124.593 37.0119 124.593C32.8974 125.809 28.6339 126.433 24.4335 127.381C24.4221 127.383 24.4106 127.386 24.3992 127.388L24.4481 127.379C19.5813 127.887 13.7048 129.106 10.3406 125.587C10.3365 125.582 10.3324 125.577 10.3283 125.573C10.0917 125.302 9.87553 125.011 9.7334 124.731C9.57789 124.447 9.58981 124.207 9.61127 124.227C9.61883 124.216 9.62658 124.206 9.63457 124.195C17.6096 117.472 27.5214 112.184 36.6927 106.483C37.7632 105.839 38.7381 105.254 39.8172 104.608Z" fill="#2D1909"/>
<path id="Vector 7" d="M68.031 112.944C68.1459 112.944 68.2561 112.899 68.3374 112.817C68.4186 112.736 68.4643 112.626 68.4643 112.511C68.4643 112.396 68.4186 112.286 68.3374 112.205C68.2561 112.123 68.1459 112.078 68.031 112.078C68.031 112.078 68.031 112.078 68.031 112.078C67.2693 112.112 66.604 112.147 65.8915 112.147C65.2908 112.148 64.6896 112.131 64.0917 112.091C64.0432 112.088 63.9946 112.084 63.9457 112.08C63.8967 112.056 64.044 112.125 64.0444 112.161C64.0519 112.178 64.0481 112.089 64.0686 111.996C64.0868 111.898 64.116 111.785 64.1442 111.652C64.1581 111.585 64.1724 111.513 64.1812 111.421C64.1806 111.323 64.2249 111.232 64.1063 110.967C64.1011 110.957 64.0954 110.947 64.0893 110.937C63.7715 110.348 63.0131 109.989 62.4062 110.004C61.7896 109.997 61.2651 110.152 60.7485 110.339C59.7483 110.717 58.8498 111.243 57.9814 111.793C56.2497 112.903 54.6446 114.149 53.0577 115.412C49.8847 117.921 46.871 120.667 43.604 122.892L43.6194 122.882C43.4845 122.964 43.3513 123.044 43.22 123.124C40.2792 124.906 37.4394 126.881 34.7304 128.985C34.7313 128.984 34.7272 128.987 34.7338 128.982C34.7354 128.981 34.7341 128.982 34.7437 128.975C34.7477 128.973 34.7479 128.972 34.7692 128.959C34.7755 128.955 34.7827 128.951 34.8024 128.941C34.8408 128.938 34.7931 128.892 35.0685 128.902C35.1425 128.912 35.2903 128.969 35.3736 129.108C35.4563 129.245 35.4421 129.37 35.4295 129.431C35.3976 129.556 35.3694 129.574 35.3548 129.599C35.3243 129.64 35.3155 129.646 35.307 129.655C35.2638 129.695 35.2769 129.681 35.2708 129.687C35.2638 129.692 35.2653 129.691 35.2642 129.692C35.2633 129.693 35.2632 129.693 35.263 129.693C35.2627 129.693 35.2627 129.693 35.2626 129.693C35.2626 129.693 35.2626 129.693 35.2626 129.693C35.2627 129.693 35.2631 129.693 35.2635 129.693C35.2642 129.692 35.2641 129.692 35.2644 129.692C35.2649 129.691 35.2655 129.691 35.2662 129.69C35.2676 129.689 35.2695 129.688 35.2703 129.687C35.2724 129.686 35.2751 129.684 35.278 129.681C35.282 129.678 35.288 129.674 35.2924 129.67C35.3016 129.663 35.3113 129.655 35.321 129.648C35.3213 129.648 35.3216 129.647 35.322 129.647C35.895 129.195 36.2698 128.526 36.7217 127.956C36.7247 127.952 36.7262 127.947 36.7261 127.941C36.726 127.936 36.7243 127.931 36.7211 127.927C36.7179 127.924 36.7134 127.921 36.7081 127.92C36.7028 127.919 36.6972 127.92 36.6929 127.922C36.6929 127.922 36.6929 127.922 36.6929 127.922C36.0593 128.28 35.338 128.525 34.7831 128.946C34.7828 128.946 34.7825 128.946 34.7822 128.946C34.773 128.953 34.7639 128.96 34.7554 128.966C34.7513 128.969 34.7458 128.974 34.7423 128.976C34.7397 128.978 34.7374 128.98 34.7356 128.981C34.7349 128.982 34.7333 128.983 34.7323 128.984C34.7317 128.984 34.7313 128.984 34.7309 128.985C34.7307 128.985 34.7308 128.985 34.7303 128.985C34.73 128.985 34.7299 128.985 34.7298 128.985C34.7297 128.985 34.7297 128.985 34.7296 128.986C34.7295 128.986 34.7295 128.986 34.7292 128.986C34.729 128.986 34.7289 128.986 34.728 128.987C34.7269 128.988 34.7284 128.986 34.7214 128.992C34.7153 128.997 34.7283 128.984 34.6852 129.024C34.6767 129.033 34.6679 129.039 34.6374 129.079C34.6227 129.105 34.5946 129.123 34.5626 129.248C34.5501 129.309 34.5359 129.433 34.6186 129.571C34.7019 129.71 34.8496 129.767 34.9237 129.776C35.1991 129.787 35.1514 129.741 35.1898 129.738C35.2095 129.728 35.2167 129.724 35.223 129.72C35.2443 129.707 35.2445 129.706 35.2485 129.703C35.2581 129.697 35.2568 129.697 35.2584 129.696C35.265 129.691 35.261 129.694 35.262 129.694C38.0015 127.65 40.8456 125.791 43.7657 124.021C43.896 123.942 44.0281 123.862 44.162 123.781C44.1651 123.779 44.1744 123.774 44.1774 123.772C47.5819 121.449 50.5457 118.721 53.6997 116.213C55.2694 114.955 56.8549 113.719 58.5238 112.641C59.3567 112.109 60.2199 111.606 61.0968 111.273C61.9782 110.934 62.9224 110.828 63.244 111.449C63.2404 111.443 63.237 111.437 63.234 111.431C63.1718 111.281 63.209 111.319 63.2006 111.346C63.1996 111.379 63.1939 111.431 63.1867 111.487C63.172 111.602 63.1511 111.735 63.1399 111.887C63.1333 112.04 63.1123 112.211 63.2028 112.466C63.2484 112.592 63.3559 112.744 63.4973 112.829C63.6377 112.916 63.7736 112.94 63.8832 112.947C63.9339 112.95 63.9844 112.953 64.0346 112.956C64.654 112.997 65.2746 113.015 65.8933 113.014C66.6092 113.015 67.3708 112.975 68.031 112.944Z" fill="#2D1909"/>
<path id="Vector 8" d="M54.7784 106.442C54.9047 106.484 55.0425 106.475 55.1616 106.415C55.2807 106.355 55.3712 106.251 55.4133 106.125C55.4553 105.998 55.4455 105.861 55.3859 105.741C55.3264 105.622 55.2219 105.532 55.0956 105.49C55.0956 105.49 55.0956 105.49 55.0956 105.49C53.768 105.047 52.4293 104.577 51.0958 104.103C44.4941 101.724 37.8676 99.3227 31.4582 96.531C31.2664 96.4437 31.0362 96.3367 30.8507 96.2472C30.7191 96.1865 30.5948 96.1029 30.5945 96.0969C30.5999 96.1082 30.6163 96.1013 30.6536 96.2135C30.6931 96.3244 30.6363 96.5059 30.5804 96.5588C30.4775 96.6591 30.5216 96.6039 30.5546 96.6012C30.7444 96.5414 31.0665 96.5116 31.3667 96.4969C31.9628 96.4693 32.59 96.4861 33.2123 96.5163C34.4643 96.5799 35.7102 96.7042 36.9556 96.8614C39.4453 97.1837 41.9309 97.6199 44.3223 98.2975C44.5254 98.3559 44.7271 98.4127 44.9303 98.4685C48.3015 99.402 51.79 99.9703 55.2896 100.116C55.3893 100.12 55.4898 100.128 55.5909 100.138C56.9211 100.214 58.1508 101.024 59.9766 100.731C60.1173 100.697 60.2882 100.595 60.387 100.46C60.4885 100.325 60.5223 100.203 60.5427 100.104C60.6056 99.4394 60.442 99.1788 60.3723 98.8106C60.2887 98.4751 60.2129 98.124 60.2311 97.9237C60.2386 97.8375 60.2559 97.7574 60.2826 97.6838C60.3928 97.3675 60.7081 97.1611 61.0879 97.1583C61.1848 97.1573 61.281 97.1604 61.3771 97.1675C64.6732 97.6131 66.7095 101.21 69.4511 103.64C69.5131 103.695 69.5732 103.752 69.631 103.81C70.0247 104.204 70.3037 104.69 70.356 105.165C70.3627 105.223 70.3668 105.281 70.3684 105.34C70.3947 106.51 69.4086 107.672 68.3701 108.575L68.4629 108.509C68.4316 108.527 68.3995 108.544 68.3669 108.56C68.093 108.699 67.7803 108.797 67.4553 108.862C67.0652 108.941 66.6562 108.974 66.247 108.975C66.2269 108.975 66.2066 108.975 66.1864 108.975C65.3233 108.943 64.1678 109.072 63.3471 109.685C63.3428 109.688 63.339 109.691 63.3366 109.696C63.3342 109.701 63.3334 109.706 63.3346 109.711C63.3358 109.715 63.3388 109.719 63.343 109.722C63.3473 109.725 63.3524 109.727 63.3576 109.728C63.3576 109.728 63.3576 109.728 63.3576 109.728C64.384 109.842 65.1519 110.093 66.1794 110.124C66.2029 110.124 66.2264 110.124 66.2501 110.124C66.7288 110.122 67.2092 110.076 67.6887 109.972C68.0883 109.885 68.4886 109.758 68.8759 109.56C68.922 109.537 68.9679 109.512 69.0134 109.487C69.0335 109.475 69.0886 109.436 69.1061 109.421C70.2125 108.416 71.4692 107.171 71.4798 105.308C71.477 105.216 71.4701 105.125 71.4588 105.033C71.3563 104.22 70.9127 103.553 70.4042 103.041C70.3287 102.965 70.2509 102.892 70.1711 102.822C67.5394 100.598 65.694 96.7799 61.4568 96.09C61.331 96.0807 61.2046 96.0765 61.0771 96.0778C60.3374 96.0653 59.523 96.5519 59.2655 97.3136C59.2038 97.4829 59.1676 97.6562 59.1522 97.8276C59.1214 98.3476 59.2362 98.7065 59.3166 99.0683C59.3595 99.2457 59.4028 99.4169 59.4346 99.5735C59.4682 99.7214 59.4797 99.9015 59.4741 99.8956C59.476 99.8898 59.4793 99.8564 59.523 99.7975C59.5648 99.7382 59.6533 99.6869 59.7012 99.6773C58.6666 99.9013 57.2008 99.1958 55.6985 99.0607C55.5792 99.0488 55.4587 99.0398 55.3371 99.0345C51.9141 98.8917 48.5214 98.3393 45.2171 97.4249C45.0179 97.3701 44.8202 97.3146 44.621 97.2575C42.1384 96.5576 39.6185 96.1363 37.0832 95.8258C35.8153 95.675 34.5492 95.5575 33.2599 95.4992C32.6169 95.4719 31.9713 95.4564 31.3155 95.489C30.9698 95.5124 30.6575 95.5211 30.2397 95.6455C30.1444 95.6863 30.0127 95.6963 29.8075 95.9155C29.6993 96.0311 29.6217 96.284 29.6831 96.4759C29.7503 96.6801 29.7983 96.7086 29.8652 96.7886C30.0879 97.0036 30.2311 97.0572 30.4156 97.1525C30.609 97.2454 30.8458 97.3554 31.0422 97.4447C37.536 100.273 44.1337 102.661 50.7595 105.049C52.0969 105.524 53.4388 105.995 54.7784 106.442Z" fill="#2D1909"/>
<path id="Vector 9" d="M106.835 103.666C106.969 103.666 107.097 103.613 107.192 103.518C107.287 103.423 107.34 103.295 107.34 103.161C107.34 103.027 107.287 102.899 107.192 102.804C107.097 102.71 106.969 102.656 106.835 102.656C106.835 102.656 106.835 102.656 106.835 102.656C106.965 102.65 107.135 102.737 107.201 102.827C107.272 102.919 107.268 102.935 107.284 102.972C107.304 103.036 107.3 103.051 107.301 103.057C107.302 103.072 107.301 103.055 107.303 103.041C107.307 103.003 107.313 102.96 107.323 102.903C107.342 102.804 107.367 102.692 107.396 102.573C107.451 102.35 107.515 102.117 107.581 101.885C107.716 101.418 107.859 100.955 108.005 100.494C109.454 95.9943 111.059 91.5344 112.654 87.0593C112.673 87.0078 112.692 86.9546 112.711 86.9014C117.05 75.1661 121.355 63.3192 127.274 52.3276L127.265 52.3414C127.3 52.2865 127.334 52.2341 127.367 52.1844C127.486 52.0044 127.598 51.8279 127.716 51.663C127.776 51.5774 127.859 51.4803 127.883 51.4578C127.885 51.4523 127.88 51.462 127.823 51.4611C127.764 51.4623 127.693 51.4045 127.69 51.3878C127.677 51.3533 127.706 51.4019 127.715 51.4429C127.765 51.6346 127.78 51.8901 127.796 52.1303C127.825 52.6154 127.842 53.1104 127.85 53.6027C127.851 53.6084 127.853 53.6139 127.857 53.6182C127.861 53.6225 127.866 53.625 127.872 53.6254C127.878 53.6258 127.883 53.6239 127.888 53.6203C127.892 53.6166 127.896 53.6114 127.896 53.6058C127.896 53.6058 127.896 53.6058 127.896 53.6058C127.97 53.1184 128.066 52.6366 128.144 52.1468C128.18 51.8967 128.223 51.6602 128.207 51.3657C128.197 51.2896 128.201 51.2112 128.119 51.0761C128.081 51.0096 127.954 50.9143 127.833 50.9158C127.714 50.9141 127.649 50.951 127.602 50.974C127.417 51.0817 127.339 51.18 127.245 51.2787C127.083 51.4604 126.953 51.6373 126.827 51.8251C126.792 51.8767 126.756 51.9307 126.719 51.9872C126.717 51.9899 126.712 51.9982 126.711 52.001C120.622 63.0313 116.115 74.7889 111.762 86.5573C111.743 86.6106 111.724 86.6639 111.704 86.7173C110.106 91.2002 108.504 95.6529 107.043 100.189C106.895 100.656 106.75 101.125 106.611 101.606C106.542 101.847 106.475 102.089 106.415 102.333C106.383 102.465 106.355 102.59 106.33 102.721C106.316 102.799 106.307 102.856 106.297 102.952C106.294 102.991 106.29 103.046 106.294 103.118C106.296 103.148 106.297 103.201 106.326 103.293C106.348 103.345 106.345 103.368 106.428 103.476C106.506 103.578 106.689 103.673 106.835 103.666Z" fill="#2D1909"/>
<path id="Vector 10" d="M136.9 55.3282C136.985 55.4133 137.101 55.4612 137.221 55.4612C137.342 55.4612 137.457 55.4133 137.542 55.3282C137.628 55.243 137.675 55.1275 137.675 55.0071C137.675 54.8867 137.628 54.7712 137.542 54.686C137.542 54.686 137.542 54.686 137.542 54.686C137.457 54.5926 137.285 54.5296 137.162 54.5437C137.018 54.5612 137.013 54.5784 136.96 54.601C136.876 54.6445 136.828 54.692 136.806 54.7118C136.752 54.763 136.707 54.8196 136.68 54.8542C136.613 54.9418 136.57 55.0093 136.518 55.0906C136.426 55.237 136.345 55.3817 136.262 55.5334C136.107 55.8195 135.955 56.1205 135.815 56.408C135.527 56.9964 135.257 57.5828 134.992 58.1696C132.656 63.4209 130.576 68.7253 128.497 74.0698C128.49 74.0884 128.483 74.1069 128.476 74.1254C125.276 82.8171 121.593 91.8609 122.181 101.345C122.18 101.358 122.18 101.37 122.18 101.383C122.785 108.797 126.576 115.003 127.73 121.998C127.732 122.005 127.733 122.013 127.735 122.021C127.916 122.964 128.125 123.899 128.259 124.832C128.347 125.486 128.413 126.158 128.265 126.755C128.264 126.758 128.263 126.762 128.262 126.766L128.38 126.625C128.369 126.686 127.994 126.585 127.752 126.463C127.485 126.34 127.217 126.195 126.955 126.044C126.949 126.04 126.94 126.039 126.932 126.041C126.924 126.042 126.918 126.046 126.913 126.053C126.908 126.059 126.906 126.066 126.907 126.075C126.908 126.083 126.911 126.09 126.917 126.096C126.917 126.096 126.917 126.096 126.917 126.096C127.136 126.304 127.347 126.522 127.584 126.724C127.704 126.825 127.83 126.922 127.982 127.004C128.131 127.074 128.33 127.186 128.615 127.062C128.655 127.037 128.72 126.966 128.733 126.921C128.735 126.916 128.736 126.912 128.738 126.907C128.992 126.193 128.994 125.471 128.978 124.771C128.942 123.777 128.811 122.806 128.629 121.848C128.627 121.84 128.626 121.833 128.624 121.825C127.453 114.753 123.645 108.233 123.116 101.402C123.116 101.391 123.117 101.38 123.117 101.368C122.529 92.0322 126.129 83.1339 129.323 74.4531C129.33 74.4346 129.337 74.4162 129.344 74.3977C131.419 69.0622 133.5 63.7562 135.82 58.5428C136.082 57.9616 136.35 57.3815 136.63 56.8071C136.767 56.5269 136.915 56.2346 137.06 55.9674C137.137 55.8262 137.212 55.6933 137.287 55.5734C137.328 55.5082 137.364 55.4549 137.399 55.4087C137.413 55.3909 137.434 55.3678 137.431 55.3712C137.429 55.3712 137.425 55.3811 137.374 55.4088C137.34 55.4226 137.341 55.4354 137.224 55.4497C137.123 55.4622 136.97 55.4062 136.9 55.3282Z" fill="#2D1909"/>
<path id="Vector 11" d="M95.0361 93.9925C94.9604 94.1456 94.9485 94.3225 95.0032 94.4843C95.0579 94.6461 95.1746 94.7796 95.3276 94.8553C95.4807 94.9311 95.6576 94.9429 95.8194 94.8883C95.9812 94.8336 96.1147 94.7169 96.1904 94.5638C96.1904 94.5638 96.1904 94.5638 96.1904 94.5638C96.3115 94.3419 96.6778 93.9211 96.972 93.6073C99.5563 90.9383 102.629 88.626 105.937 86.911L105.825 86.9554C105.828 86.9545 105.831 86.9537 105.834 86.9528C109.015 86.023 112.482 86.0923 115.642 87.0964C115.645 87.0972 115.647 87.098 115.65 87.0989L115.607 87.0834C116.751 87.5395 118.014 88.0962 119.367 88.2524C119.86 88.3134 120.354 88.3284 120.844 88.3017C120.869 88.3003 120.894 88.2922 120.914 88.2763C120.934 88.2604 120.947 88.2383 120.951 88.214C120.954 88.1898 120.948 88.1648 120.934 88.1438C120.919 88.1228 120.898 88.1079 120.874 88.0993C120.42 87.9328 119.982 87.7548 119.557 87.5632C118.395 87.0522 117.35 86.3798 116.088 85.8719C116.08 85.8685 116.054 85.8592 116.045 85.8564C116.042 85.8555 116.039 85.8546 116.036 85.8537C112.629 84.7727 108.909 84.713 105.472 85.7167C105.469 85.7176 105.466 85.7185 105.463 85.7194C105.439 85.7263 105.373 85.7527 105.351 85.7639C101.879 87.5705 98.7639 89.9102 96.0312 92.7276C95.6952 93.1034 95.3764 93.3992 95.0361 93.9925Z" fill="#2D1909"/>
<path id="Vector 12" d="M111.115 86.3305C111.115 86.187 111.058 86.0493 110.957 85.9478C110.855 85.8463 110.718 85.7893 110.574 85.7893C110.431 85.7893 110.293 85.8463 110.192 85.9478C110.09 86.0493 110.033 86.187 110.033 86.3305C110.034 86.3858 110.032 86.4164 110.053 86.518C110.068 86.5714 110.068 86.6018 110.131 86.7117C110.186 86.8038 110.316 86.9394 110.511 86.9766C110.876 87.0134 110.933 86.8862 110.995 86.8607C111.062 86.8106 111.083 86.7864 111.115 86.7537C111.22 86.6411 111.278 86.5518 111.333 86.4709C111.443 86.3033 111.535 86.1389 111.622 85.9808C111.798 85.6565 111.953 85.3429 112.107 85.0199C113.249 82.5895 114.216 80.1197 115.184 77.6335C115.187 77.6263 115.194 77.6045 115.196 77.5972C115.219 77.5222 115.242 77.4473 115.265 77.3725C118.146 68.1793 120.592 58.7733 123.753 49.7655C123.762 49.7459 123.771 49.7282 123.779 49.7128L123.655 49.8366C123.645 49.8439 123.578 49.8631 123.526 49.8443C123.475 49.8267 123.471 49.8099 123.477 49.8145C123.491 49.8221 123.529 49.8724 123.562 49.9239C123.875 50.4792 124.234 51.1428 124.595 51.7365C124.595 51.7376 124.597 51.7384 124.598 51.7389C124.599 51.7393 124.601 51.7392 124.602 51.7387C124.603 51.7382 124.604 51.7372 124.604 51.7359C124.605 51.7347 124.605 51.7332 124.605 51.732C124.605 51.732 124.605 51.732 124.605 51.732C124.388 51.0537 124.339 50.3792 124.081 49.6617C124.047 49.5819 124.012 49.4991 123.926 49.3974C123.881 49.3477 123.818 49.2825 123.696 49.2443C123.571 49.2042 123.427 49.2402 123.352 49.284C123.317 49.3042 123.247 49.3719 123.228 49.4078C123.215 49.4302 123.202 49.4539 123.189 49.4791C119.791 58.6369 117.123 67.835 114.231 77.0549C114.208 77.1297 114.185 77.2045 114.162 77.2795L114.174 77.2431C113.212 79.7154 112.242 82.1872 111.131 84.5533C110.982 84.8653 110.832 85.1672 110.672 85.4627C110.594 85.6054 110.509 85.7533 110.429 85.8746C110.393 85.93 110.343 85.9964 110.332 86.0072C110.331 86.0083 110.329 86.008 110.355 85.9881C110.386 85.9852 110.4 85.8858 110.722 85.915C110.894 85.9476 111.01 86.0696 111.052 86.1426C111.101 86.2289 111.099 86.2459 111.108 86.276C111.118 86.3275 111.115 86.327 111.115 86.3305Z" fill="#2D1909"/>
<path id="Vector 13" d="M140.07 49.6131C140.128 49.4772 140.129 49.3241 140.073 49.1874C140.018 49.0508 139.91 48.9417 139.775 48.8842C139.639 48.8268 139.486 48.8257 139.349 48.8811C139.212 48.9366 139.103 49.044 139.046 49.1799C139.046 49.1799 139.046 49.1799 139.046 49.1799C138.448 50.5931 137.898 52.0252 137.39 53.4713C133.74 64.0323 132.108 75.0564 130.062 85.9281C130.062 85.9315 130.061 85.9349 130.06 85.9384C129.268 90.3397 128.394 94.7543 128.095 99.2658C128.094 99.2729 128.094 99.2799 128.093 99.287C127.808 104.04 128.088 108.726 128.243 113.416C128.243 113.426 128.244 113.437 128.244 113.447C128.464 119.093 128.94 124.701 129.023 130.301C129.023 130.315 129.023 130.329 129.024 130.342L129.027 130.268C128.869 131.763 128.848 133.274 128.672 134.714C128.644 134.925 128.611 135.133 128.566 135.332C128.563 135.344 128.56 135.356 128.557 135.369L128.844 135.084C128.982 135.062 128.968 135.104 128.929 135.082C128.89 135.067 128.831 135.035 128.772 134.998C128.652 134.922 128.525 134.831 128.397 134.739C128.14 134.553 127.877 134.36 127.614 134.173C127.086 133.797 126.545 133.432 126.011 133.069C126.008 133.066 126.003 133.065 125.999 133.066C125.995 133.067 125.991 133.069 125.988 133.072C125.985 133.075 125.984 133.079 125.984 133.084C125.984 133.088 125.986 133.092 125.989 133.095C125.989 133.095 125.989 133.095 125.989 133.095C126.435 133.562 126.862 134.05 127.286 134.536C127.498 134.778 127.71 135.022 127.934 135.262C128.047 135.383 128.16 135.502 128.297 135.622C128.366 135.682 128.439 135.743 128.54 135.805C128.64 135.855 128.788 135.967 129.085 135.9C129.195 135.861 129.344 135.729 129.371 135.616C129.376 135.601 129.382 135.587 129.387 135.572C129.467 135.341 129.529 135.116 129.586 134.891C129.947 133.374 130.138 131.888 130.299 130.398C130.301 130.383 130.303 130.339 130.303 130.324C130.302 130.31 130.302 130.296 130.302 130.282C130.218 124.623 129.739 119.001 129.52 113.399C129.52 113.388 129.52 113.378 129.519 113.368C129.362 108.683 129.087 103.989 129.363 99.3724C129.363 99.3655 129.364 99.3585 129.364 99.3516C129.653 94.9355 130.363 90.5324 131.155 86.138C131.155 86.1346 131.156 86.1311 131.156 86.1277C133.2 75.2523 134.839 64.2469 138.44 53.8398C138.94 52.4139 139.482 51.0037 140.07 49.6131Z" fill="#2D1909"/>
<path id="Vector 14" d="M96.0265 93.9956C96.0755 93.8862 96.079 93.7617 96.0363 93.6497C95.9935 93.5376 95.908 93.4471 95.7986 93.3981C95.6891 93.3491 95.5647 93.3456 95.4526 93.3883C95.3405 93.431 95.25 93.5165 95.201 93.626C95.201 93.626 95.201 93.626 95.201 93.626C94.9237 94.3564 94.9201 94.9582 94.8635 95.5873C94.6605 99.8871 94.9174 104.103 95.0067 108.342C95.0069 108.351 95.0072 108.36 95.0074 108.369C95.2596 113.688 92.695 118.93 88.3157 121.893C88.314 121.894 88.3124 121.896 88.3107 121.897L88.4182 121.838C87.7297 122.105 87.148 122.678 86.5006 122.528C86.5 122.528 86.4994 122.527 86.4987 122.527C85.989 122.377 85.5682 121.824 85.1538 121.368C84.7513 120.906 84.3522 120.438 83.9386 119.981C83.9358 119.978 83.9318 119.976 83.9275 119.976C83.9232 119.976 83.919 119.977 83.9158 119.98C83.9126 119.982 83.9105 119.986 83.9099 119.99C83.9094 119.995 83.9104 119.999 83.9129 120.002C83.9129 120.002 83.9129 120.002 83.9129 120.002C84.2785 120.498 84.635 120.996 84.9943 121.495C85.3827 121.992 85.6768 122.578 86.36 122.912C86.3608 122.912 86.3617 122.913 86.3625 122.913C87.2026 123.24 88.1145 123.067 88.8071 122.811C88.8304 122.801 88.8941 122.767 88.9146 122.753C88.9163 122.751 88.9181 122.75 88.9198 122.749C93.5775 119.609 96.1956 113.873 95.9115 108.346C95.9113 108.337 95.911 108.327 95.9108 108.318C95.8205 104.083 95.5675 99.8274 95.7658 95.6484C95.8079 95.0707 95.8645 94.3992 96.0265 93.9956Z" fill="#2D1909"/>
<path id="Vector 15" d="M80.1846 118.067C80.2942 118.067 80.3992 118.023 80.4767 117.946C80.5542 117.868 80.5977 117.763 80.5977 117.654C80.5977 117.544 80.5542 117.439 80.4767 117.362C80.3992 117.284 80.2942 117.241 80.1846 117.241C80.1998 117.244 79.9832 117.194 79.8617 117.156C79.7224 117.116 79.5793 117.073 79.4359 117.029C78.3894 116.712 77.3238 116.394 76.1983 116.23C75.7578 116.168 75.5336 116.64 75.86 116.942C75.8624 116.944 75.8648 116.947 75.8672 116.949C78.5954 119.324 81.1443 122.084 84.7857 123.276C84.7928 123.278 84.8142 123.282 84.8215 123.283C84.8228 123.283 84.8242 123.283 84.8255 123.283C85.5581 123.357 86.2758 123.115 86.8842 122.8C87.1567 122.662 87.4184 122.51 87.678 122.355C87.6843 122.352 87.6889 122.345 87.691 122.338C87.6931 122.331 87.6926 122.323 87.6894 122.317C87.6862 122.31 87.6805 122.305 87.6734 122.302C87.6664 122.3 87.6585 122.3 87.6518 122.302C87.6518 122.302 87.6518 122.302 87.6518 122.302C87.3727 122.415 87.0893 122.514 86.8034 122.595C86.1532 122.782 85.5046 122.858 84.8783 122.773C84.8771 122.773 84.8759 122.773 84.8748 122.773L84.9106 122.779C81.6252 121.593 79.1181 118.701 76.4284 116.343C76.426 116.341 76.4237 116.338 76.4213 116.336L76.083 117.048C77.1199 117.198 78.155 117.503 79.1963 117.82C79.3404 117.863 79.4849 117.907 79.6328 117.95C79.7989 117.991 79.8749 118.04 80.1846 118.067Z" fill="#2D1909"/>
<path id="Vector 16" d="M98.9152 100.824C98.9152 100.692 98.8629 100.566 98.7698 100.473C98.6767 100.38 98.5505 100.327 98.4188 100.327C98.2871 100.327 98.1608 100.38 98.0677 100.473C97.9746 100.566 97.9223 100.692 97.9223 100.824C97.9209 101.253 97.907 101.697 97.8929 102.142C97.7525 105.988 97.5441 109.854 97.2261 113.686C97.2258 113.689 97.2255 113.693 97.2252 113.696L97.2301 113.657C96.5164 117.22 96.5458 121.141 95.0661 124.25C95.0657 124.25 95.0652 124.251 95.0647 124.252L95.111 124.2C94.7975 124.492 94.4104 124.749 93.9972 124.984C93.6149 125.202 93.2109 125.401 92.8028 125.585C92.7987 125.586 92.7954 125.59 92.7936 125.594C92.7917 125.599 92.7914 125.603 92.7928 125.607C92.7942 125.612 92.7972 125.615 92.8013 125.617C92.8053 125.62 92.8101 125.621 92.8144 125.62C92.8144 125.62 92.8144 125.62 92.8144 125.62C93.2513 125.521 93.6938 125.44 94.135 125.317C94.6099 125.182 95.0972 124.997 95.5086 124.648C95.5191 124.638 95.5469 124.608 95.5549 124.596C95.5554 124.596 95.556 124.595 95.5566 124.594C97.3794 121.114 97.4703 117.422 98.2095 113.821C98.2108 113.813 98.2138 113.789 98.2145 113.782C98.2148 113.778 98.2151 113.774 98.2154 113.771C98.5359 109.907 98.7439 106.046 98.8853 102.175C98.8995 101.723 98.9136 101.283 98.9152 100.824Z" fill="#2D1909"/>
<path id="Vector 17" d="M62.8045 117.118C62.7865 117.016 62.7286 116.925 62.6436 116.866C62.5586 116.807 62.4534 116.783 62.3513 116.801C62.2491 116.819 62.1584 116.877 62.0989 116.962C62.0394 117.047 62.0162 117.152 62.0342 117.255C62.0342 117.255 62.0342 117.255 62.0342 117.255C62.0987 117.623 62.1507 118.008 62.1986 118.387C62.7973 123.858 63.1874 129.422 62.9664 134.896L62.9679 134.877C62.9679 134.878 62.9679 134.878 62.9678 134.878C62.9506 135.035 62.9487 135.195 62.9478 135.341C62.9512 135.406 62.9333 135.505 62.9614 135.482C62.9681 135.491 63.0122 135.363 63.2255 135.39C63.3822 135.445 63.3482 135.48 63.3552 135.482C63.3487 135.489 63.3241 135.46 63.305 135.434C63.1405 135.187 62.9944 134.862 62.8976 134.553C62.8975 134.552 62.8973 134.552 62.8972 134.551C62.6591 133.762 62.3291 133.009 61.9885 132.267C61.8254 131.913 61.659 131.562 61.4894 131.21C61.4888 131.208 61.4877 131.207 61.4863 131.207C61.4849 131.207 61.4834 131.207 61.4821 131.207C61.4808 131.208 61.4798 131.209 61.4793 131.21C61.4788 131.212 61.4788 131.213 61.4793 131.214C61.4793 131.214 61.4793 131.214 61.4793 131.214C61.6327 131.574 61.785 131.931 61.9338 132.291C62.2448 133.045 62.5435 133.807 62.7263 134.598C62.7264 134.598 62.7266 134.599 62.7267 134.599C62.8047 134.919 62.7892 135.239 62.8411 135.61C62.8511 135.66 62.8575 135.707 62.8955 135.784C62.925 135.819 62.9176 135.89 63.1145 135.955C63.3689 135.991 63.448 135.821 63.4729 135.8C63.5808 135.633 63.5915 135.569 63.6287 135.474C63.6896 135.298 63.7269 135.131 63.7455 134.963C63.7456 134.962 63.7456 134.962 63.7456 134.962C63.746 134.958 63.747 134.947 63.7472 134.943C63.9711 129.356 63.5794 123.828 62.9747 118.29C62.9258 117.903 62.8734 117.512 62.8045 117.118Z" fill="#2D1909"/>
<path id="Vector 18" d="M59.7454 116.252C59.7454 116.341 59.7808 116.426 59.8438 116.489C59.9068 116.552 59.9923 116.588 60.0814 116.588C60.1705 116.588 60.256 116.552 60.319 116.489C60.3821 116.426 60.4175 116.341 60.4175 116.252C60.4175 116.252 60.4175 116.252 60.4175 116.252C60.4173 116.24 60.4178 116.229 60.4143 116.199C60.4116 116.183 60.411 116.165 60.393 116.117C60.3777 116.088 60.3226 115.909 60.0644 115.904C59.8379 115.933 59.8135 116.05 59.8013 116.051C59.7891 116.069 59.7825 116.082 59.7773 116.092C59.7673 116.113 59.7634 116.124 59.76 116.134C59.7487 116.168 59.746 116.185 59.7436 116.195C59.7406 116.209 59.7378 116.223 59.7348 116.239C59.7276 116.278 59.7257 116.29 59.7205 116.321C59.7101 116.384 59.7046 116.419 59.6951 116.48C59.6803 116.576 59.6643 116.683 59.6494 116.785C59.6197 116.987 59.5903 117.194 59.5616 117.397C58.9277 121.963 58.3321 126.535 57.7309 131.103C57.7262 131.139 57.7215 131.175 57.7169 131.21C57.4497 133.161 57.1967 135.144 56.8192 137.036C56.8167 137.047 56.8142 137.059 56.8117 137.071C56.6581 137.805 56.4932 138.471 56.1144 139.1C55.9152 139.437 55.6683 139.762 55.394 140.079C55.3907 140.083 55.3884 140.087 55.3879 140.092C55.3875 140.097 55.3888 140.102 55.3917 140.106C55.3947 140.11 55.399 140.113 55.404 140.113C55.409 140.114 55.4141 140.113 55.4185 140.111C55.4185 140.111 55.4185 140.111 55.4185 140.111C55.7988 139.93 56.1617 139.697 56.4787 139.393C57.0841 138.831 57.4231 137.996 57.576 137.235C57.5786 137.223 57.5813 137.211 57.5839 137.198C57.9767 135.216 58.1145 133.256 58.3834 131.297C58.388 131.262 58.3926 131.226 58.3973 131.19C58.9983 126.623 59.5944 122.049 60.2271 117.491C60.2557 117.288 60.285 117.083 60.3144 116.883C60.3291 116.782 60.3449 116.676 60.3593 116.583C60.3685 116.524 60.3739 116.489 60.3835 116.431C60.3881 116.404 60.3901 116.392 60.3956 116.362C60.3978 116.35 60.3996 116.341 60.4005 116.337C60.4007 116.334 60.4036 116.327 60.3951 116.354C60.3925 116.361 60.3892 116.371 60.3799 116.39C60.3751 116.4 60.3688 116.412 60.3569 116.429C60.3449 116.431 60.3214 116.546 60.0954 116.575C59.8377 116.57 59.783 116.392 59.7681 116.364C59.7505 116.317 59.7502 116.3 59.7478 116.286C59.7448 116.261 59.7456 116.256 59.7454 116.252Z" fill="#2D1909"/>
<path id="Vector 19" d="M94.7887 96.6156C94.7887 96.71 94.8262 96.8005 94.8929 96.8673C94.9596 96.934 95.0501 96.9715 95.1445 96.9715C95.2389 96.9715 95.3294 96.934 95.3962 96.8673C95.4629 96.8005 95.5004 96.71 95.5004 96.6156C95.5169 96.4935 95.4615 96.6804 95.4563 96.6517C95.4733 96.636 95.6126 96.5956 95.7363 96.5796C95.7389 96.5793 95.7414 96.5789 95.744 96.5785C96.4906 96.4904 97.344 96.3181 98.1403 96.4882C98.1406 96.4883 98.1409 96.4883 98.1412 96.4884C98.9484 96.6695 99.6738 97.1428 100.455 97.4727C100.549 97.5136 100.642 97.5528 100.737 97.5913C100.748 97.5956 100.76 97.5954 100.771 97.591C100.781 97.5866 100.79 97.5783 100.794 97.5678C100.799 97.5573 100.799 97.5453 100.795 97.5345C100.791 97.5237 100.783 97.5148 100.772 97.51C100.772 97.51 100.772 97.51 100.772 97.51C100.68 97.4673 100.589 97.4243 100.498 97.3798C99.7371 97.0203 99.0371 96.528 98.1994 96.2711C98.1991 96.271 98.1988 96.2709 98.1985 96.2708C97.3828 96.0341 96.5462 95.7705 95.6425 95.8741C95.6392 95.8745 95.636 95.875 95.6327 95.8755C95.4654 95.9059 95.306 95.9153 95.0692 96.0544C94.9891 96.1047 94.8849 96.2015 94.8338 96.3327C94.7827 96.4623 94.7899 96.5668 94.7887 96.6156Z" fill="#2D1909"/>
<path id="Vector 20" d="M105.113 92.7727C105.085 92.6092 104.994 92.4632 104.859 92.3669C104.724 92.2705 104.557 92.2317 104.393 92.2589C104.23 92.2862 104.084 92.3773 103.987 92.5122C103.891 92.6471 103.852 92.8148 103.879 92.9783C103.879 92.9783 103.879 92.9783 103.879 92.9783C103.955 93.4309 104.026 93.8803 104.09 94.3312C104.457 96.924 104.605 99.5597 104.727 102.207L104.727 102.191C104.729 102.287 104.73 102.383 104.732 102.481C104.806 107.016 105.101 111.565 105.267 116.109C105.276 116.358 105.284 116.59 105.292 116.838C105.307 117.222 105.314 117.605 105.344 117.998C105.359 118.055 105.32 118.058 105.402 118.202C105.428 118.244 105.539 118.227 105.547 118.202C105.558 118.192 105.564 118.183 105.569 118.176C105.578 118.16 105.582 118.148 105.584 118.142C105.589 118.129 105.595 118.109 105.597 118.099C105.603 118.075 105.609 118.045 105.613 118.024C105.632 117.927 105.647 117.827 105.66 117.735C105.688 117.543 105.713 117.353 105.739 117.163C105.801 116.704 105.864 116.249 105.931 115.79C105.933 115.781 105.93 115.772 105.925 115.765C105.92 115.758 105.913 115.754 105.904 115.752C105.896 115.751 105.887 115.753 105.88 115.757C105.873 115.762 105.868 115.77 105.866 115.778C105.866 115.778 105.866 115.778 105.866 115.778C105.772 116.234 105.685 116.685 105.598 117.14C105.562 117.328 105.526 117.517 105.487 117.705C105.469 117.795 105.449 117.893 105.426 117.982C105.421 118.002 105.414 118.029 105.409 118.046C105.406 118.054 105.402 118.067 105.4 118.071C105.399 118.073 105.396 118.077 105.399 118.072C105.401 118.069 105.404 118.064 105.412 118.056C105.414 118.037 105.519 118.021 105.539 118.058C105.582 118.126 105.545 118.01 105.552 117.984C105.544 117.61 105.56 117.219 105.571 116.837C105.578 116.59 105.587 116.358 105.595 116.109C105.757 111.564 106.057 107.016 105.982 102.459C105.98 102.36 105.978 102.263 105.977 102.167C105.976 102.164 105.976 102.154 105.976 102.151C105.853 99.4868 105.705 96.8252 105.328 94.1551C105.262 93.692 105.189 93.2309 105.113 92.7727Z" fill="#2D1909"/>
<path id="Vector 21" d="M111.697 90.0709C111.697 89.8974 111.628 89.731 111.506 89.6082C111.383 89.4854 111.217 89.4164 111.044 89.4162C110.87 89.416 110.704 89.4848 110.581 89.6074C110.458 89.7299 110.389 89.8962 110.389 90.0697C110.389 90.0697 110.389 90.0697 110.389 90.0697C110.389 90.8944 110.421 91.7163 110.465 92.5356C111.021 99.6475 111.51 106.717 114.106 113.634C114.107 113.636 114.108 113.638 114.109 113.64C116.302 118.118 118.526 122.572 120.622 127.077C120.627 127.088 120.633 127.1 120.638 127.112C120.64 127.115 120.645 127.126 120.646 127.129C121.563 128.979 122.678 130.719 123.464 132.551C123.47 132.565 123.476 132.58 123.482 132.595L123.461 132.387C123.44 132.393 123.587 132.244 123.579 132.282C123.571 132.294 123.481 132.307 123.391 132.304C123.204 132.3 122.985 132.265 122.766 132.226C121.989 132.079 121.189 131.879 120.404 131.654C120.397 131.652 120.39 131.653 120.384 131.656C120.378 131.659 120.373 131.664 120.37 131.67C120.368 131.676 120.368 131.683 120.37 131.69C120.373 131.696 120.377 131.702 120.383 131.705C121.106 132.093 121.805 132.508 122.578 132.844C122.801 132.937 123.023 133.025 123.292 133.082C123.429 133.107 123.57 133.136 123.788 133.094C123.894 133.071 124.038 133.015 124.152 132.892C124.267 132.77 124.316 132.62 124.334 132.51C124.338 132.464 124.331 132.345 124.313 132.302C124.308 132.286 124.303 132.269 124.298 132.253C123.649 130.226 122.741 128.367 121.837 126.533L121.846 126.55C121.84 126.539 121.835 126.527 121.829 126.515C119.722 121.986 117.473 117.535 115.284 113.065C115.283 113.063 115.282 113.061 115.281 113.06C112.892 106.716 112.294 99.4122 111.771 92.4655C111.728 91.6621 111.697 90.8567 111.697 90.0709Z" fill="#2D1909"/>
<path id="Vector 22" d="M102.607 109.269C102.615 109.15 102.576 109.032 102.497 108.943C102.419 108.853 102.308 108.798 102.188 108.79C102.069 108.782 101.952 108.822 101.862 108.9C101.772 108.979 101.718 109.09 101.71 109.209C101.71 109.209 101.71 109.209 101.71 109.209C101.686 109.556 101.663 109.903 101.639 110.249C101.495 112.365 101.261 114.455 100.792 116.503C100.791 116.504 100.791 116.505 100.791 116.506C100.188 119.124 99.2719 121.68 98.3563 124.231C98.3556 124.233 98.355 124.235 98.3543 124.237C97.8887 125.6 97.4925 126.762 96.3885 127.693C96.1375 127.926 95.8702 128.155 95.599 128.382C95.5936 128.387 95.5894 128.393 95.5878 128.4C95.5861 128.407 95.5871 128.414 95.5906 128.42C95.5941 128.426 95.5998 128.43 95.6067 128.433C95.6136 128.435 95.6209 128.434 95.6276 128.432C95.6276 128.432 95.6276 128.432 95.6276 128.432C95.9608 128.31 96.2901 128.173 96.6092 128.012C97.988 127.439 98.8724 125.872 99.2825 124.571C99.2832 124.569 99.2839 124.567 99.2846 124.565C100.205 121.998 101.05 119.391 101.669 116.705C101.669 116.704 101.669 116.703 101.669 116.702C102.152 114.597 102.392 112.443 102.536 110.313C102.561 109.964 102.584 109.616 102.607 109.269Z" fill="#2D1909"/>
<path id="Vector 23" d="M62.4405 113.914C62.4405 114.032 62.4875 114.146 62.5712 114.229C62.6549 114.313 62.7684 114.36 62.8867 114.36C63.0051 114.36 63.1186 114.313 63.2022 114.229C63.2859 114.146 63.3329 114.032 63.3329 113.914C63.3329 113.914 63.3329 113.914 63.3329 113.914C63.3329 113.898 63.333 113.884 63.3332 113.878C63.3331 113.876 63.3337 113.873 63.3323 113.888C63.3303 113.898 63.3342 113.898 63.3177 113.959C63.3125 113.975 63.3058 113.996 63.2907 114.027C63.2641 114.072 63.2175 114.181 63.0324 114.249C62.8095 114.326 62.6133 114.18 62.5914 114.152C62.5588 114.121 62.5419 114.097 62.5294 114.079C62.4475 113.93 62.4938 114.005 62.4854 113.995C62.4876 114.003 62.4905 114.014 62.4936 114.027C62.506 114.077 62.5193 114.139 62.5318 114.198C62.5574 114.321 62.5813 114.443 62.6054 114.569C62.6569 114.837 62.7065 115.107 62.7563 115.38C62.7628 115.416 62.7694 115.452 62.7762 115.489C63.2314 118.014 63.6483 120.55 64.1333 123.077C64.1364 123.093 64.1395 123.109 64.1426 123.125C64.4677 124.828 64.948 126.476 65.4113 128.139C65.481 128.387 65.551 128.635 65.6216 128.885C65.6264 128.902 65.6366 128.917 65.6513 128.928C65.666 128.938 65.6838 128.943 65.7013 128.94C65.7187 128.938 65.7346 128.928 65.7457 128.914C65.7569 128.9 65.7622 128.882 65.7621 128.864C65.7621 128.864 65.7621 128.864 65.7621 128.864C65.7594 128.605 65.7527 128.346 65.7419 128.087C65.6721 126.343 65.3835 124.63 65.0622 122.947C65.0592 122.931 65.0561 122.916 65.053 122.9C64.57 120.386 64.1105 117.861 63.6543 115.33C63.6475 115.293 63.6408 115.256 63.6343 115.22C63.5842 114.945 63.5343 114.674 63.4818 114.4C63.4572 114.272 63.4328 114.147 63.4053 114.016C63.3916 113.95 63.3778 113.885 63.3599 113.812C63.3552 113.793 63.3506 113.775 63.3436 113.75C63.3259 113.71 63.365 113.754 63.2667 113.577C63.2529 113.557 63.2349 113.532 63.2012 113.5C63.1779 113.47 62.9792 113.323 62.7548 113.401C62.5682 113.469 62.5202 113.58 62.4924 113.627C62.4766 113.659 62.4692 113.682 62.4635 113.7C62.4446 113.769 62.4475 113.777 62.4447 113.795C62.4417 113.826 62.4416 113.84 62.4411 113.853C62.4404 113.879 62.4405 113.898 62.4405 113.914Z" fill="#2D1909"/>
<path id="Vector 24" d="M69.8448 114.589C69.7757 114.479 69.6657 114.4 69.5391 114.371C69.4124 114.342 69.2794 114.365 69.1693 114.434C69.0592 114.503 68.981 114.613 68.952 114.74C68.923 114.866 68.9455 114.999 69.0146 115.11C69.0146 115.11 69.0146 115.11 69.0146 115.11C69.1757 115.365 69.3437 115.623 69.5098 115.879C71.8201 119.406 74.1567 122.906 76.4968 126.404C76.4981 126.406 76.4993 126.408 76.5006 126.41L76.4177 126.142C76.4434 126.631 76.442 127.579 75.8158 128.065C75.8147 128.065 75.8137 128.066 75.8126 128.067C75.4335 128.357 74.9799 128.532 74.5189 128.654C74.2269 128.732 73.9297 128.791 73.6324 128.85C73.626 128.852 73.6203 128.855 73.6166 128.861C73.613 128.866 73.6116 128.873 73.6129 128.88C73.6142 128.886 73.618 128.892 73.6235 128.895C73.629 128.899 73.6357 128.9 73.6422 128.899C73.6422 128.899 73.6422 128.899 73.6422 128.899C73.9395 128.84 74.2376 128.78 74.5317 128.702C74.9959 128.579 75.4564 128.402 75.8427 128.107C75.8438 128.106 75.8449 128.105 75.846 128.104C76.4167 127.657 77.3562 127.195 77.3976 126.132C77.3967 126.067 77.3512 125.919 77.3147 125.865C77.3135 125.863 77.3122 125.861 77.311 125.859C74.9734 122.364 72.634 118.86 70.331 115.344C70.1664 115.091 69.9977 114.832 69.8448 114.589Z" fill="#2D1909"/>
<path id="Vector 25" d="M57.8672 118.121C57.8672 118.213 57.9037 118.301 57.9687 118.366C58.0337 118.431 58.1219 118.468 58.2138 118.468C58.3058 118.468 58.3939 118.431 58.459 118.366C58.524 118.301 58.5605 118.213 58.5605 118.121C58.5771 118.029 58.4663 117.792 58.2949 117.755C58.1839 117.722 58.1134 117.74 58.0801 117.745C57.9928 117.764 57.9617 117.781 57.9182 117.799C57.8409 117.833 57.7773 117.87 57.7209 117.903C57.603 117.974 57.4961 118.046 57.3925 118.118C55.6317 119.411 54.0659 120.848 52.4731 122.283C52.4708 122.285 52.464 122.292 52.4617 122.294C52.4402 122.315 52.4188 122.337 52.3975 122.358C51.2617 123.481 50.3945 124.841 49.3681 126.013C49.3608 126.021 49.3535 126.03 49.3462 126.038C48.9125 126.516 48.4429 126.956 47.9346 127.355C47.7449 127.505 47.5505 127.651 47.3547 127.798C47.3172 127.826 47.2923 127.868 47.2857 127.914C47.2791 127.961 47.2912 128.008 47.3193 128.045C47.3475 128.083 47.3894 128.108 47.4359 128.114C47.4824 128.121 47.5296 128.109 47.5671 128.081C47.5671 128.081 47.5671 128.081 47.5671 128.081C47.7629 127.934 47.9599 127.786 48.1541 127.633C48.6751 127.224 49.1638 126.766 49.608 126.276C49.6155 126.268 49.623 126.259 49.6305 126.251C50.6822 125.056 51.7808 123.942 52.8884 122.848C52.9092 122.827 52.9302 122.806 52.9512 122.785L52.9399 122.796C54.5182 121.372 56.1077 119.921 57.7893 118.687C57.8845 118.62 57.9823 118.555 58.0751 118.499C58.1184 118.473 58.1675 118.447 58.2003 118.432C58.2151 118.425 58.2334 118.421 58.2127 118.426C58.2042 118.425 58.1737 118.44 58.086 118.416C57.9482 118.389 57.8504 118.178 57.8672 118.121Z" fill="#2D1909"/>
<path id="Vector 26" d="M37.64 128.898C37.6464 128.898 37.6525 128.896 37.657 128.891C37.6615 128.887 37.664 128.881 37.664 128.875C37.664 128.868 37.6615 128.862 37.657 128.858C37.6525 128.853 37.6464 128.851 37.64 128.851C37.5521 128.848 37.4599 128.861 37.3746 128.885C37.0836 128.971 36.8156 129.107 36.547 129.239C36.5465 129.239 36.546 129.239 36.5455 129.24C35.4085 129.818 34.2983 130.447 33.1826 131.064C33.1061 131.106 33.0297 131.149 32.9532 131.191C32.9476 131.194 32.9435 131.199 32.9418 131.205C32.94 131.212 32.9408 131.218 32.9439 131.224C32.947 131.229 32.9521 131.233 32.9583 131.235C32.9644 131.237 32.9709 131.236 32.9765 131.233C32.9765 131.233 32.9765 131.233 32.9765 131.233C33.053 131.191 33.1294 131.148 33.2059 131.106C34.3213 130.489 35.4322 129.859 36.5669 129.282C36.5674 129.282 36.5679 129.282 36.5684 129.282C36.8357 129.151 37.1049 129.015 37.3873 128.931C37.4705 128.908 37.5531 128.897 37.64 128.898Z" fill="#2D1909"/>
<path id="Vector 27" d="M20.7139 133.276C20.6415 133.178 20.5329 133.113 20.4122 133.094C20.2915 133.076 20.1685 133.107 20.0703 133.179C19.9721 133.252 19.9066 133.36 19.8884 133.481C19.8702 133.601 19.9006 133.724 19.9731 133.823C19.9731 133.823 19.9731 133.823 19.9731 133.823C20.2145 134.15 20.4748 134.462 20.7516 134.758C23.7897 137.925 28.1276 139.125 32.2423 139.68C32.2786 139.685 32.3148 139.689 32.3511 139.694C34.7821 140 37.1892 140.02 39.6062 140.056C39.6697 140.057 39.7332 140.056 39.7966 140.055L39.7649 140.052C39.8022 140.055 39.835 140.057 39.8599 140.059C39.8697 140.059 39.8834 140.062 39.8683 140.055C39.8556 140.04 39.8607 140.081 39.7444 139.952C39.713 139.907 39.6759 139.839 39.685 139.729C39.6932 139.629 39.7579 139.552 39.776 139.535C39.823 139.489 39.8558 139.479 39.8635 139.475C39.941 139.459 39.8016 139.497 39.7449 139.504C39.5979 139.53 39.4377 139.549 39.2762 139.564C38.8984 139.599 38.5076 139.614 38.1189 139.582C38.1081 139.581 38.0968 139.585 38.0876 139.592C38.0783 139.599 38.072 139.608 38.0697 139.619C38.0674 139.629 38.0693 139.64 38.0749 139.65C38.0805 139.66 38.0892 139.669 38.0994 139.672C38.0994 139.672 38.0994 139.672 38.0994 139.672C38.47 139.805 38.8467 139.938 39.2425 140.03C39.413 140.069 39.5835 140.101 39.7676 140.115C39.8757 140.114 39.9055 140.15 40.1393 140.08C40.1536 140.073 40.2004 140.055 40.2525 140.003C40.2735 139.984 40.3424 139.9 40.3507 139.795C40.3602 139.681 40.3216 139.609 40.287 139.559C40.1579 139.414 40.141 139.446 40.1111 139.425C40.0558 139.402 40.0283 139.396 40.0001 139.388C39.9416 139.373 39.8976 139.365 39.8475 139.356C39.8412 139.356 39.8222 139.354 39.8159 139.354C39.7529 139.349 39.6898 139.345 39.6267 139.342C37.2306 139.22 34.8114 139.08 32.4723 138.781C32.4293 138.776 32.394 138.771 32.3587 138.767C28.355 138.236 24.1913 137.032 21.4239 134.129C21.1706 133.858 20.9334 133.574 20.7139 133.276Z" fill="#2D1909"/>
<path id="Vector 28" d="M127.519 45.0762C127.489 45.0463 127.449 45.0295 127.406 45.0295C127.364 45.0295 127.323 45.0463 127.293 45.0762C127.264 45.1061 127.247 45.1467 127.247 45.189C127.247 45.2313 127.264 45.2718 127.293 45.3018C127.293 45.3018 127.293 45.3018 127.293 45.3018C127.301 45.3095 127.309 45.3173 127.317 45.3251C127.457 45.4654 127.597 45.6056 127.738 45.7459C127.745 45.7537 127.753 45.7615 127.761 45.7693C127.791 45.7992 127.832 45.816 127.874 45.816C127.916 45.816 127.957 45.7992 127.987 45.7692C128.017 45.7393 128.033 45.6988 128.033 45.6565C128.033 45.6142 128.017 45.5736 127.987 45.5437C127.987 45.5437 127.987 45.5437 127.987 45.5437C127.979 45.5359 127.971 45.5281 127.963 45.5203C127.823 45.3801 127.683 45.2398 127.542 45.0996C127.535 45.0918 127.527 45.084 127.519 45.0762Z" fill="#2D1909"/>
<path id="Vector 29" d="M127.406 45.189L127.874 45.6565" stroke="#2D1909" stroke-width="0.944063" stroke-linecap="round" stroke-linejoin="round"/>
<path id="Vector 30" d="M127.043 45.3621C126.965 45.4583 126.929 45.5816 126.942 45.7049C126.954 45.8281 127.016 45.9412 127.112 46.0192C127.208 46.0973 127.331 46.1339 127.455 46.1211C127.578 46.1082 127.691 46.0469 127.769 45.9507C127.769 45.9507 127.769 45.9507 127.769 45.9507C128.626 44.0504 128.626 42.5576 128.91 40.8564C129.609 35.4409 129.914 29.9896 130.101 24.5485C130.112 24.2297 130.128 23.9078 130.145 23.5826C130.159 23.3237 130.192 23.0608 130.253 22.8856C130.275 22.799 130.345 22.7599 130.253 22.8354C130.118 22.9082 130.061 22.8447 130.133 22.8888C130.289 22.9822 130.527 23.2375 130.737 23.4821C131.568 24.4376 132.377 25.4384 133.406 26.3205C133.744 26.6032 134.109 26.877 134.55 27.0915C134.876 27.2693 135.497 27.355 135.926 27.0565C136.337 26.7819 136.508 26.4392 136.652 26.1378C136.923 25.5236 137.037 24.9433 137.144 24.3637C137.348 23.2158 137.43 22.0655 137.611 21.0094C137.655 20.7606 137.716 20.4974 137.779 20.354C137.765 20.3632 137.81 20.366 137.639 20.5111C137.592 20.5697 137.278 20.6573 137.128 20.5793C136.994 20.5293 136.933 20.4543 136.917 20.4373C136.848 20.3437 136.899 20.4113 136.907 20.4491C136.942 20.543 136.98 20.6867 137.01 20.8152C137.074 21.0883 137.128 21.3783 137.177 21.6689C137.276 22.2529 137.359 22.8474 137.438 23.4432C137.595 24.6355 137.731 25.8365 137.865 27.0385C137.887 27.2342 137.909 27.4317 137.931 27.6255C137.971 27.9929 138.111 28.5248 138.607 28.8445C139.101 29.1457 139.576 29.0855 139.935 29.0148C140.199 28.9577 140.434 28.8723 140.658 28.7741C141.978 28.1815 143.13 27.437 144.333 26.9969C144.576 26.9084 144.82 26.8344 145.058 26.7837C145.293 26.7258 145.517 26.7479 145.492 26.7509C145.468 26.7491 145.403 26.6575 145.413 26.6612C145.415 26.6623 145.421 26.736 145.405 26.8275C145.336 27.2166 145.092 27.7184 144.837 28.1819C144.313 29.1196 143.677 30.0342 143.026 30.9346C141.711 32.7946 140.329 34.278 138.907 36.4644C138.869 36.573 138.836 36.641 138.834 36.8455C138.82 37.0049 138.953 37.3329 139.137 37.4504C139.506 37.6877 139.667 37.6212 139.817 37.6319C142.817 36.9979 144.979 35.7156 147.516 34.9573C147.608 34.9279 147.691 34.918 147.72 34.9209C147.754 34.9266 147.695 34.9156 147.671 34.883C147.64 34.83 147.693 34.9277 147.678 35.0634C147.669 35.1984 147.628 35.3608 147.566 35.5008C147.47 35.7224 147.357 35.936 147.229 36.1428C145.462 38.866 141.889 39.9055 138.735 41.4934C138.709 41.5063 138.641 41.5517 138.619 41.5697C138.495 41.6715 138.376 41.7714 138.255 41.8751C136.7 43.2023 135.326 44.7573 134.194 46.4534C133.741 47.124 133.324 47.8277 132.917 48.4781L132.926 48.4644C132.91 48.489 132.893 48.5137 132.877 48.5388C132.65 48.8808 132.384 49.348 132.358 49.9163C132.328 50.4867 132.602 50.9847 132.952 51.2935C132.964 51.3043 132.978 51.3137 132.993 51.3186C133.008 51.3235 133.024 51.3233 133.038 51.3176C133.051 51.3119 133.062 51.301 133.07 51.2867C133.077 51.2724 133.08 51.256 133.081 51.2397C133.081 51.2397 133.081 51.2397 133.081 51.2397C133.129 50.2412 133.526 50.0096 134.005 49.2928C134.021 49.2675 134.038 49.242 134.056 49.216C134.058 49.2133 134.063 49.2051 134.065 49.2023C134.496 48.5122 134.887 47.8436 135.314 47.1996C136.376 45.5818 137.636 44.1144 139.097 42.8522C139.21 42.7538 139.322 42.6588 139.439 42.562L139.323 42.6383C142.305 41.0698 146.077 40.1015 148.286 36.7964C148.444 36.5416 148.584 36.2757 148.706 35.9986C148.888 35.4626 149.174 34.9001 148.606 34.063C148.393 33.8097 148.046 33.6877 147.793 33.6793C147.536 33.6661 147.33 33.7144 147.147 33.7697C144.581 34.5569 141.997 35.9065 139.768 36.3924C139.729 36.4078 139.68 36.3399 139.889 36.464C139.997 36.5285 140.086 36.7516 140.074 36.8211C140.072 36.9132 140.06 36.914 140.063 36.9145C141.12 35.3746 142.741 33.463 144.03 31.663C144.696 30.7406 145.348 29.8081 145.922 28.7823C146.203 28.2543 146.487 27.7567 146.629 27.0275C146.658 26.8383 146.678 26.6199 146.616 26.3616C146.558 26.0803 146.316 25.7589 146.032 25.6346C145.461 25.4056 145.162 25.5138 144.8 25.5709C144.489 25.6371 144.194 25.7283 143.909 25.8315C142.525 26.3441 141.349 27.1101 140.158 27.6385C139.994 27.7109 139.827 27.7689 139.675 27.8013C139.461 27.8519 139.292 27.8215 139.273 27.7994C139.254 27.7956 139.182 27.7025 139.159 27.4874C139.137 27.2937 139.114 27.0962 139.092 26.9002C138.955 25.6965 138.817 24.4902 138.657 23.2819C138.577 22.6773 138.491 22.0729 138.387 21.4623C138.335 21.157 138.278 20.8519 138.204 20.5334C138.167 20.3802 138.125 20.212 138.058 20.0265C138.013 19.9248 138.013 19.8553 137.844 19.637C137.809 19.5965 137.709 19.4863 137.545 19.4275C137.362 19.3345 137 19.4353 136.93 19.5126C136.693 19.7099 136.713 19.7669 136.659 19.8592C136.51 20.2153 136.463 20.5023 136.407 20.7944C136.211 21.9675 136.143 23.0807 135.96 24.1592C135.826 25.1851 135.334 26.4582 135.05 26.0392C134.747 25.8979 134.438 25.6794 134.142 25.4365C133.227 24.6736 132.397 23.711 131.538 22.7714C131.291 22.5123 131.077 22.2392 130.645 21.9795C130.551 21.9286 130.44 21.8754 130.281 21.8484C130.127 21.8195 129.899 21.8433 129.73 21.9499C129.396 22.1751 129.351 22.4134 129.29 22.591C129.193 22.9531 129.189 23.2501 129.184 23.5545C129.182 23.879 129.178 24.2002 129.167 24.5178C128.981 29.9376 128.676 35.3753 127.984 40.7329C127.758 42.3151 127.521 44.2099 127.043 45.3621Z" fill="#2D1909"/>
<path id="Vector 42" d="M83.8202 57.2618C83.6743 57.1659 83.4963 57.132 83.3253 57.1674C83.1544 57.2029 83.0045 57.3048 82.9087 57.4507C82.8128 57.5966 82.7789 57.7747 82.8144 57.9456C82.8498 58.1166 82.9517 58.2664 83.0976 58.3623C83.0976 58.3623 83.0976 58.3623 83.0976 58.3623C82.9171 58.2072 83.0451 58.3162 83.0551 58.3654C83.0891 58.4323 83.1241 58.5138 83.1575 58.5993C83.2241 58.7697 83.2875 58.9635 83.3437 59.1522C83.459 59.5411 83.5545 59.936 83.642 60.3416C84.3207 63.6322 84.5048 67.0687 84.5164 70.4821C84.5165 70.4878 84.5165 70.4935 84.5164 70.4992C84.4947 78.7234 78.8818 85.7808 72.7468 91.0764L72.8363 91.0108C72.8361 91.0109 72.836 91.011 72.8358 91.0111C69.8427 92.8573 66.8002 94.6144 63.7036 96.2793C63.6978 96.2824 63.692 96.2855 63.6862 96.2887C63.6778 96.2932 63.6694 96.2977 63.6611 96.3022L63.6795 96.2927C63.3218 96.4746 62.9945 96.6876 62.781 96.809C62.6729 96.8642 62.6294 96.931 62.4901 96.9132C62.3527 96.8923 62.1793 96.759 62.0237 96.5947C62.0119 96.5822 61.9985 96.571 61.9831 96.5643C61.9676 96.5577 61.9513 96.5562 61.9365 96.5607C61.9216 96.5652 61.9088 96.5754 61.8996 96.5895C61.8904 96.6036 61.8855 96.6204 61.8825 96.6373C61.8825 96.6373 61.8825 96.6373 61.8825 96.6373C61.8495 96.8733 61.845 97.1337 62.0076 97.4086C62.1638 97.6916 62.5631 97.8732 62.868 97.8875C63.4909 97.9213 63.9192 97.7287 64.3082 97.547C64.3119 97.5451 64.3229 97.5394 64.3265 97.5374C64.335 97.533 64.3434 97.5285 64.3518 97.5239C64.3576 97.5208 64.3635 97.5176 64.3693 97.5145C67.4872 95.8382 70.5579 94.0646 73.571 92.2025C73.5712 92.2024 73.5713 92.2023 73.5715 92.2022C73.5906 92.1904 73.644 92.1513 73.661 92.1367C79.9253 86.7043 85.7889 79.3573 85.833 70.4997C85.833 70.4936 85.833 70.4875 85.833 70.4814C85.8192 67.003 85.6406 63.5232 84.9291 60.0647C84.8362 59.6347 84.7348 59.2132 84.6056 58.7769C84.5421 58.564 84.4702 58.3416 84.3836 58.1198C84.3394 58.0072 84.2926 57.8954 84.2287 57.7689C84.1979 57.7084 84.1603 57.6393 84.1131 57.5676C84.0559 57.4901 84.0184 57.4034 83.8202 57.2618Z" fill="#2D1909"/>
<path id="Vector 43" d="M60.3235 38.0513C60.1664 37.9873 59.9904 37.9882 59.834 38.054C59.6776 38.1198 59.5538 38.245 59.4898 38.4021C59.4257 38.5591 59.4267 38.7352 59.4925 38.8916C59.5583 39.0479 59.6835 39.1718 59.8405 39.2358C59.8405 39.2358 59.8405 39.2358 59.8405 39.2358C61.0208 39.7171 62.1913 40.1999 63.3595 40.689C67.1026 42.2573 70.8054 43.8735 74.454 45.6606C74.6767 45.7607 74.8318 45.8562 75.1914 45.9661C75.3053 45.9936 75.399 46.0158 75.5744 46.0099C75.7189 46.007 75.9923 45.9407 76.174 45.7436C76.5148 45.3216 76.4209 45.0742 76.4296 44.8942C76.3969 44.5248 76.3178 44.2784 76.2425 44.0146C76.0875 43.5019 75.916 43.0314 75.7615 42.5618C75.461 41.6496 75.1586 40.6273 75.2929 39.9862C75.2969 39.9689 75.3012 39.9525 75.3056 39.9369C75.3162 39.9274 75.2709 39.951 75.365 39.9043C75.4523 39.8674 75.6202 39.8394 75.8011 39.8362C76.1687 39.8284 76.5931 39.8913 77.0116 39.9804C77.0525 39.9892 77.0947 39.9985 77.1356 40.0078C80.1763 40.6656 82.3316 43.2564 84.3248 45.8606C84.4244 45.9874 84.5258 46.1159 84.6265 46.2423C84.747 46.3927 84.8367 46.5066 84.967 46.6601C84.9822 46.6777 84.9946 46.6928 85.029 46.7298C85.0448 46.7465 85.0601 46.7629 85.0905 46.7904C85.1022 46.8003 85.0728 46.7763 85.1266 46.8208C85.1487 46.8378 85.1749 46.8594 85.2365 46.8928C85.3024 46.9165 85.3917 47.0064 85.7066 46.96C85.8604 46.9339 86.0546 46.8094 86.1443 46.6645C86.2383 46.5207 86.2541 46.4003 86.2602 46.3223C86.2661 46.1656 86.2412 46.1142 86.2303 46.0697C86.22 46.0371 86.2191 46.0361 86.2141 46.0226C86.1974 45.9799 86.1867 45.9595 86.1773 45.9411C86.1067 45.8139 86.1081 45.8248 86.072 45.7673C86.0259 45.6968 85.9733 45.6191 85.9252 45.5484C85.7277 45.2588 85.5381 44.9855 85.3473 44.7081C84.9649 44.1526 84.5849 43.5952 84.215 43.0374C83.521 41.9833 82.6048 40.579 82.3744 39.8523C82.382 39.91 82.3542 40.0293 82.3045 40.0928C82.2566 40.1583 82.2229 40.171 82.2225 40.172C82.221 40.1702 82.3058 40.1438 82.4006 40.1382C82.6952 40.1161 83.0854 40.187 83.4274 40.3156C83.6789 40.4097 83.9218 40.5167 84.1612 40.6391C89.157 43.4799 90.7328 50.0092 92.1158 55.7092L92.1058 55.6615C92.1302 55.8019 92.1534 55.9451 92.1749 56.0867C92.4706 58.0666 92.5192 60.1019 92.3969 62.1124L92.4025 62.0566C92.3961 62.1019 92.3897 62.1453 92.3827 62.1891C92.3816 62.1959 92.3806 62.2026 92.3795 62.2093C92.2757 63.2623 91.6028 64.0516 90.7315 65.0103C90.6738 65.0736 90.6323 65.153 90.6222 65.2395C90.612 65.3259 90.6333 65.4114 90.6831 65.4792C90.7329 65.547 90.808 65.593 90.8934 65.6093C90.979 65.6255 91.0672 65.6098 91.1449 65.5738C91.1449 65.5738 91.1449 65.5738 91.1449 65.5738C92.2759 65.0756 93.6598 63.9884 93.8127 62.4421C93.8141 62.4337 93.8154 62.4254 93.8167 62.4171C93.8253 62.3631 93.833 62.311 93.8404 62.2581C93.842 62.2469 93.8454 62.2135 93.8461 62.2022C93.9722 60.0919 93.8955 57.9776 93.5803 55.8724C93.5573 55.7215 93.5323 55.5684 93.506 55.4178C93.5044 55.4081 93.4984 55.3795 93.496 55.3701C92.044 49.6615 90.6849 42.8285 84.8041 39.3814C84.5189 39.2357 84.229 39.106 83.9279 38.9912C83.4218 38.8039 82.9039 38.682 82.2918 38.7199C82.0806 38.739 81.858 38.7675 81.5804 38.9029C81.4435 38.9731 81.2818 39.0788 81.1449 39.2696C81.005 39.4579 80.9366 39.7339 80.9556 39.9454C81.4944 41.8161 82.2989 42.597 83.0438 43.8182C83.4232 44.3844 83.8108 44.9466 84.1978 45.5032C84.3903 45.7804 84.5832 46.0558 84.7749 46.3345C84.821 46.4017 84.8714 46.4756 84.9082 46.5315C84.9287 46.5615 84.9589 46.6127 84.9416 46.5813C84.9367 46.5716 84.9293 46.5583 84.9148 46.5212C84.9103 46.5092 84.9096 46.5086 84.9 46.4785C84.89 46.4368 84.8656 46.3876 84.8714 46.2325C84.8774 46.1552 84.893 46.0355 84.9867 45.892C85.0761 45.7476 85.2699 45.6234 85.4231 45.5975C85.7369 45.5512 85.8246 45.6407 85.8884 45.6633C85.948 45.6956 85.9715 45.7154 85.9905 45.7299C86.0342 45.766 86.0099 45.7461 86.019 45.7538C86.0401 45.773 86.0432 45.7772 86.0436 45.7775C86.0413 45.7752 86.0292 45.7615 86.0207 45.7517C85.9251 45.6401 85.8266 45.5173 85.7115 45.3743C85.6134 45.2521 85.5137 45.1266 85.4151 45.0017C83.4335 42.4454 81.0509 39.4718 77.4377 38.6772C77.3916 38.6667 77.3436 38.6561 77.297 38.6462C76.8162 38.5456 76.3251 38.4619 75.7716 38.4694C75.4935 38.4775 75.1961 38.501 74.8545 38.634C74.5217 38.75 74.0987 39.1146 73.9894 39.5569C73.9776 39.5979 73.967 39.6391 73.9575 39.6803C73.7344 41.0521 74.1905 42.01 74.5019 42.9932C74.6718 43.4756 74.854 43.9481 74.9983 44.3975C75.0687 44.6177 75.1311 44.8487 75.1434 44.9904C75.1664 45.0524 75.078 45.0837 75.2445 44.8561C75.3405 44.7521 75.4787 44.7266 75.5067 44.7283C75.5465 44.7276 75.5352 44.7316 75.511 44.7248C75.4419 44.7081 75.1887 44.5938 75.0016 44.5045C71.3537 42.7175 67.6032 41.0798 63.8535 39.509C62.6812 39.0182 61.5071 38.5339 60.3235 38.0513Z" fill="#2D1909"/>
<path id="Vector 44" d="M54.8672 33.1491C54.7739 33.1677 54.6919 33.2227 54.6391 33.3018C54.5863 33.381 54.5672 33.4778 54.5858 33.5711C54.6045 33.6644 54.6594 33.7464 54.7386 33.7992C54.8177 33.8519 54.9146 33.8711 55.0078 33.8524C55.0078 33.8524 55.0078 33.8524 55.0078 33.8524C55.4086 33.7723 55.8091 33.6989 56.2105 33.6322C61.0221 32.8538 66.1928 32.8883 70.5652 35.0523L70.5374 35.0365C70.5384 35.0371 70.5393 35.0377 70.5402 35.0383C71.4927 35.6285 72.5714 36.2156 72.8571 37.4021C72.8571 37.4023 72.8571 37.4024 72.8572 37.4026C73.1669 38.6099 73.1058 39.8927 73.139 41.1489C73.144 41.5587 73.1482 41.9715 73.1531 42.3836C73.1532 42.3882 73.1551 42.3926 73.1584 42.3958C73.1617 42.3991 73.1661 42.4009 73.1707 42.4009C73.1753 42.4009 73.1797 42.3991 73.1829 42.3958C73.1862 42.3926 73.1881 42.3882 73.1882 42.3836C73.1882 42.3836 73.1882 42.3836 73.1882 42.3836C73.1931 41.9715 73.1974 41.5587 73.2006 41.1488C73.1913 39.8888 73.279 38.6205 73.0073 37.3644C73.0072 37.3642 73.0072 37.3641 73.0072 37.3639C72.8021 36.1787 71.953 35.06 70.9213 34.4307C70.9203 34.43 70.9193 34.4294 70.9183 34.4288C70.9129 34.4254 70.8963 34.416 70.8906 34.4131C66.2859 32.1422 61.0012 32.1362 56.0929 32.9246C55.6837 32.9926 55.2755 33.0674 54.8672 33.1491Z" fill="#2D1909"/>
<path id="Vector 45" d="M40.2083 72.5366C40.2696 72.4752 40.3041 72.3919 40.3041 72.3051C40.3041 72.2183 40.2696 72.1351 40.2083 72.0737C40.1469 72.0123 40.0636 71.9778 39.9768 71.9778C39.89 71.9778 39.8068 72.0123 39.7454 72.0737C39.7454 72.0737 39.7454 72.0737 39.7454 72.0737C39.7226 72.0965 39.7001 72.1191 39.6781 72.1408C39.6433 72.1754 39.5955 72.2207 39.5861 72.2277C39.5878 72.2268 39.5866 72.2259 39.6116 72.2114C39.6446 72.2095 39.5895 72.1687 39.8269 72.1803C39.8859 72.1879 39.9971 72.2507 40.0401 72.3327C40.0877 72.4237 40.0798 72.4435 40.0847 72.4811C40.0853 72.5512 40.0794 72.5518 40.0758 72.5723C40.0511 72.6486 40.059 72.615 40.0603 72.6172C40.0666 72.6061 40.0797 72.5855 40.093 72.5655C40.0945 72.5631 40.0962 72.5607 40.0978 72.5582C40.3451 72.2084 40.5433 71.8174 40.8498 71.4659C40.8724 71.4421 40.896 71.4187 40.9211 71.3962C40.9259 71.3919 40.9302 71.3867 40.9326 71.3807C40.935 71.3747 40.9353 71.3683 40.9332 71.3626C40.9312 71.3568 40.927 71.3521 40.9214 71.3488C40.9157 71.3456 40.9091 71.3443 40.9027 71.344C40.9027 71.344 40.9027 71.344 40.9027 71.344C40.8671 71.3429 40.8309 71.3443 40.7947 71.348C40.2591 71.4216 39.8393 71.7826 39.5537 72.1943C39.5516 72.1975 39.5495 72.2006 39.5475 72.2037C39.5299 72.2303 39.5132 72.2556 39.4922 72.2921C39.48 72.3183 39.4737 72.3088 39.4412 72.4116C39.4367 72.436 39.4303 72.4384 39.4309 72.513C39.436 72.5525 39.4281 72.5733 39.4768 72.6661C39.5207 72.7497 39.6335 72.8134 39.6939 72.8213C39.9384 72.8337 39.8894 72.7893 39.9287 72.784C39.9653 72.7631 39.976 72.7533 39.988 72.7444C40.0647 72.6819 40.0943 72.6487 40.1382 72.6064C40.1621 72.5827 40.1854 72.5594 40.2083 72.5366Z" fill="#2D1909"/>
<path id="Vector 46" d="M39.9768 72.3051C39.8226 72.4594 39.6683 72.6137 39.8202 72.3846C39.9721 72.1555 40.435 71.5384 40.9119 71.3701" stroke="#2D1909" stroke-width="0.944063" stroke-linecap="round" stroke-linejoin="round"/>
</g>
</g>
</svg>
